<svg xmlns="http://www.w3.org/2000/svg" width="430" height="388" viewBox="0 0 430 388">
    <g fill="none">
        <path fill="#000" d="M54.783 365.422c-2.19 0-3.96-1.775-3.96-3.97 0-2.196 1.77-3.971 3.96-3.971s3.96 1.775 3.96 3.97c0 2.196-1.77 3.97-3.96 3.97zm0-7.194c-1.77 0-3.26 1.448-3.26 3.27 0 1.775 1.443 3.27 3.26 3.27 1.817 0 3.26-1.448 3.26-3.27s-1.49-3.27-3.26-3.27z"/>
        <ellipse cx="200.871" cy="329.221" fill="#EC8C92" rx="2.376" ry="2.382"/>
        <path fill="#000" d="M30.187 148.682c-.373 0-.746-.047-1.118-.187-.979-.28-1.77-.981-2.283-1.868-.513-.888-.56-1.962-.28-2.943.606-2.009 2.749-3.177 4.799-2.57 2.003.608 3.167 2.757 2.562 4.812-.28.98-.979 1.775-1.864 2.289-.559.327-1.21.467-1.816.467zm0-7.007c-1.351 0-2.563.888-2.982 2.242-.233.794-.186 1.635.233 2.383.373.747 1.072 1.26 1.863 1.541 1.63.514 3.401-.42 3.914-2.102.512-1.635-.42-3.41-2.097-3.924-.326-.093-.605-.14-.931-.14z"/>
        <ellipse cx="127.175" cy="19.058" fill="#EC8C92" rx="3.494" ry="3.503"/>
        <ellipse cx="7.034" cy="275.503" fill="#EC8C92" rx="6.708" ry="6.726"/>
        <path fill="#000" d="M359.257 37.135c-.885 0-1.723-.28-2.469-.747-.978-.654-1.63-1.682-1.816-2.803-.233-1.167.046-2.335.698-3.27.653-.98 1.677-1.634 2.795-1.821 1.165-.234 2.33.047 3.261.7.979.654 1.63 1.682 1.817 2.803.233 1.168-.046 2.336-.699 3.27-.652.98-1.677 1.635-2.795 1.822-.28.046-.559.046-.792.046zm0-8.08c-.233 0-.465 0-.698.046-.979.187-1.817.747-2.376 1.542-.56.794-.746 1.775-.56 2.756.187.98.746 1.821 1.538 2.382.792.56 1.77.747 2.749.56.978-.187 1.816-.747 2.375-1.541.56-.794.746-1.775.56-2.756-.187-.981-.746-1.822-1.538-2.382-.606-.374-1.304-.608-2.05-.608zM369.785 192.824c-.512 0-1.071-.14-1.537-.467-.605-.42-1.025-1.028-1.165-1.775-.14-.7 0-1.448.42-2.056.838-1.26 2.562-1.588 3.82-.7 1.257.84 1.584 2.569.698 3.83-.512.748-1.35 1.168-2.236 1.168zm0-4.811c-.652 0-1.304.327-1.677.887-.326.467-.419.981-.326 1.542.093.56.42 1.027.839 1.308.931.654 2.19.42 2.841-.514.653-.934.42-2.196-.512-2.85-.373-.233-.745-.373-1.165-.373zM26.693 46.384c-.093 0-.187-.046-.233-.093L13.882 33.679c-.14-.14-.14-.374 0-.514L26.46 20.553c.14-.14.372-.14.512 0L39.55 33.165c.14.14.14.374 0 .514L26.972 46.29c-.093.047-.186.093-.28.093zM14.58 33.4l12.112 12.144L38.805 33.4 26.693 21.254 14.58 33.399zM94.333 318.804c-.093 0-.186-.047-.233-.093l-8.385-8.408c-.047-.047-.093-.14-.093-.234 0-.093.046-.187.093-.233l8.385-8.408c.14-.14.373-.14.513 0l8.385 8.408c.046.046.093.14.093.233 0 .094-.047.187-.093.234l-8.385 8.408c-.094.093-.187.093-.28.093zm-7.873-8.735l7.873 7.894 7.873-7.894-7.873-7.894-7.873 7.894z"/>
        <path fill="#EC8C92" d="M407.679 64.334L418.594 64.319 418.58 75.234 407.664 75.249z" transform="rotate(-45 413.13 69.784)"/>
        <path fill="#000" d="M404.444 313.386c-.093 0-.233-.047-.28-.14l-9.037-12.099c-.093-.14-.093-.373.047-.467l12.065-9.062c.093-.047.186-.093.28-.047.093 0 .186.047.233.14l9.037 12.099c.046.093.093.187.046.28 0 .093-.046.187-.14.234l-12.065 9.062h-.186zm-8.525-12.379l8.618 11.538 11.506-8.642-8.618-11.537-11.506 8.641zM394.708 117.946c-.093 0-.14-.047-.233-.094-.14-.14-.186-.327-.047-.513l7.035-8.829c.14-.14.326-.187.512-.047.14.14.186.327.047.514l-7.035 8.829c-.093.093-.186.14-.28.14zM42.159 241.45c-.093 0-.14-.046-.233-.093-.14-.14-.187-.327-.047-.514l7.034-8.828c.14-.14.326-.187.513-.047.14.14.186.327.046.514l-7.034 8.828c-.093.094-.186.14-.28.14zM218.34 10.37c-.14 0-.233-.047-.28-.187l-5.916-9.67c-.093-.186-.046-.373.094-.466.186-.094.372-.047.465.14l5.917 9.622c.093.187.046.374-.094.467-.093.094-.14.094-.186.094zM169.52 310.303c-.093 0-.186-.047-.233-.094l-8.199-7.754c-.14-.14-.14-.374 0-.514s.373-.14.513 0l8.198 7.754c.14.14.14.374 0 .514-.093.047-.186.094-.28.094zM429.413 211.602c-.093 0-.14-.047-.233-.094l-8.804-7.053c-.14-.14-.187-.327-.047-.514.14-.14.326-.187.513-.047l8.804 7.054c.14.14.186.327.047.514-.094.093-.187.14-.28.14z"/>
        <g>
            <g>
                <path fill="#93B4F6" d="M326.336 144.62c2.97 3.692-1.717 16.593-9.653 19.024-5.615 1.683-12.53-1.87-21.533-1.45-1.438.048-3.155.235-4.919 1.216-2.738 1.543-2.97 3.6-4.733 4.768-3.62 2.384-9.839-1.262-10.72-1.776-6.544-3.787-8.771-10.658-12.53-22.997-.557-1.777-1.021-3.366-1.485-4.908 7.982 3.88 16.706 5.468 23.9 3.459 9.652-2.712 14.154-11.499 19.63-8.881 3.712 1.776 3.155 6.403 8.074 9.301 6.033 3.693 11.695-.56 13.97 2.244z" transform="translate(41.555 8.13) translate(32.485 .467)"/>
                <path fill="#FFF3A1" d="M231.155 10.19c1.392 4.627-.464 10.19-3.991 12.386-5.43 3.366-10.303-3.926-19.491-3.225-6.869.561-9.189 5.095-16.521 11.639-4.827-7.105-6.683-16.22-4.13-18.744 2.227-2.243 7.378.982 10.116-2.103 2.228-2.524.093-6.03 2.599-8.414 2.088-1.963 5.569-1.449 7.379-1.215 5.15.748 5.754 3.646 10.117 3.786 3.526.14 4.083-1.73 6.96-1.168 3.296.7 5.987 3.926 6.962 7.058zM223.59 76.797c1.393 4.3 1.532 9.068 0 13.275-3.202 8.834-13.18 13.695-22.554 13.649-9.327-.047-18.191-3.927-26.637-7.947-8.447-4.02-17.032-8.32-26.313-9.255-20.884-2.103-39.91 13.042-60.84 14.724-17.774 1.45-34.852-6.918-52.626-8.226-9.792-.702-20.744.42-28.216-5.983-5.94-5.095-7.425-13.836-5.058-21.408 8.817 2.243 17.635 4.487 26.452 6.777 7.704 1.964 15.778 3.927 23.436 1.87 10.348-2.758 17.495-12.06 26.498-17.902 11.463-7.432 26.452-8.975 39.168-3.973 12.576 4.908 22.972 15.752 36.337 17.294 18.284 2.104 35.966-13.835 53.693-8.974 7.704 2.15 14.2 8.413 16.66 16.08z" transform="translate(41.555 8.13) translate(32.485 .467)"/>
                <path fill="#93B4F6" d="M146.044 255.726c2.274 7.759-2.32 16.593-9.514 20.145-7.193 3.553-16.242 2.197-22.879-2.337-8.956-6.076-16.289-17.995-26.962-16.126-3.945.701-7.24 3.272-10.581 5.422-11.23 7.245-24.92 10.61-38.24 9.349-12.251-1.169-25.802-8.32-27.148-20.66-.557-5.142 1.207-9.208 2.924-12.714 1.81-3.786 4.408-7.339 7.471-10.423 9.746 8.647 25.478 15.33 40.7 16.032 16.242.748 16.056-3.88 40.884-6.965 13.737-1.682 29.144.234 38.611 10.377 2.135 2.29 3.852 4.955 4.734 7.9z" transform="translate(41.555 8.13) translate(32.485 .467)"/>
            </g>
            <g fill="#000">
                <path d="M268.698 177.152c-.928 0-1.902-.093-2.83-.233-5.709-1.029-10.906-5.236-12.995-10.517-1.02-2.665-.835-4.44-.603-6.124.186-1.495.325-2.944-.464-4.86-3.11-7.48-15.918-12.06-24.503-8.742-2.924 1.122-4.64 2.992-6.172 4.628-1.81 1.916-3.527 3.786-6.776 3.786-4.501.047-10.21-2.851-11.462-7.245-.882-3.132.789-5.75 2.413-8.273 1.624-2.571 3.341-5.282 2.645-8.648-1.02-4.767-6.219-7.525-7.75-8.273-4.362-2.057-8.028-1.168-11.602-.28-3.248.794-6.636 1.589-10.441.14-4.456-1.683-5.94-5.095-7.38-8.367-1.252-2.851-2.412-5.516-5.429-6.965-5.43-2.617-11.277 1.403-18.656 6.404-7.378 5.048-15.778 10.798-26.498 11.92-10.767 1.121-22.183-2.712-33.97-11.406-.141-.093-.186-.327-.093-.467s.325-.187.464-.094c11.648 8.6 22.925 12.387 33.506 11.265 10.58-1.122 18.888-6.777 26.174-11.779 7.24-4.954 13.504-9.255 19.352-6.45 3.295 1.542 4.548 4.487 5.8 7.292 1.393 3.131 2.785 6.356 6.962 7.992 3.62 1.356 6.729.608 10.024-.187 3.666-.888 7.471-1.822 12.065.328 1.625.748 7.054 3.646 8.168 8.74.79 3.646-1.02 6.45-2.738 9.162-1.578 2.524-3.11 4.908-2.32 7.712 1.16 4.067 6.497 6.778 10.766 6.731 2.924-.047 4.502-1.683 6.265-3.599 1.578-1.683 3.388-3.6 6.45-4.768 8.865-3.459 22.137 1.31 25.386 9.115.881 2.103.696 3.693.51 5.188-.185 1.636-.371 3.32.603 5.796 1.95 5.049 6.962 9.068 12.438 10.05 6.404 1.168 12.53-2.01 15.87-5.048 2.553-2.337 3.992-5.002 3.806-7.058-.139-2.01-1.763-2.992-3.944-4.347-2.506-1.59-5.662-3.506-8.122-7.9-1.902-3.412-2.042-5.936-2.134-8.18-.14-2.196-.232-4.066-1.81-6.45-3.017-4.44-7.843-5.375-12.066-6.217-3.666-.7-6.776-1.355-7.75-4.066-1.16-3.225 1.3-7.62 3.99-10.657 3.342-3.786 8.54-7.199 12.624-6.264 2.598.608 3.62 2.898 5.012 6.123.742 1.73 1.578 3.646 2.83 5.75 4.038 6.777 11.045 12.947 19.167 16.92.185.094.232.28.139.468-.093.187-.279.233-.464.14-8.26-4.02-15.315-10.283-19.445-17.154-1.3-2.15-2.135-4.114-2.877-5.843-1.346-3.132-2.274-5.188-4.548-5.703-3.805-.888-8.725 2.43-11.927 6.077-3.202 3.646-4.687 7.525-3.851 9.956.835 2.384 3.805 2.945 7.24 3.646 4.176.841 9.327 1.823 12.53 6.497 1.716 2.524 1.809 4.58 1.948 6.777.14 2.244.232 4.581 2.088 7.853 2.367 4.207 5.43 6.123 7.89 7.666 2.274 1.402 4.084 2.524 4.27 4.908.185 2.337-1.3 5.141-4.038 7.665-3.063 2.665-8.168 5.47-13.737 5.47z" transform="translate(41.555 8.13)"/>
                <path d="M314.966 169.86c-3.016 0-6.311-1.682-7.889-2.617-6.775-3.973-9.003-11.218-12.716-23.23-.556-1.777-1.067-3.413-1.485-4.909-.046-.14 0-.28.093-.374.093-.093.232-.093.371-.046 8.354 4.066 16.94 5.328 23.622 3.412 4.27-1.216 7.471-3.6 10.302-5.703 3.527-2.617 6.358-4.72 9.56-3.178 1.856.888 2.738 2.477 3.62 4.113.974 1.823 1.995 3.693 4.455 5.188 3.202 1.917 6.311 1.59 8.864 1.31 2.227-.235 4.13-.468 5.29.98 1.207 1.497 1.3 4.441.279 7.853-1.439 4.768-5.152 10.237-10.117 11.733-3.11.935-6.497.327-10.488-.374-3.295-.608-7.008-1.262-11.138-1.075-1.485.046-3.11.233-4.78 1.215-1.485.841-2.181 1.823-2.83 2.758-.558.748-1.068 1.449-1.903 2.01-.882.7-1.95.935-3.11.935zm-21.208-30.195c.371 1.309.79 2.664 1.253 4.113 3.945 12.855 6.126 19.165 12.39 22.857 1.625.935 7.148 3.88 10.35 1.776.742-.467 1.16-1.121 1.717-1.822.696-.982 1.485-2.057 3.063-2.945 1.763-1.029 3.48-1.215 5.058-1.262 4.177-.187 7.982.514 11.277 1.075 3.898.701 7.24 1.309 10.163.374 4.734-1.45 8.26-6.684 9.653-11.265.975-3.132.882-5.89-.14-7.198-.927-1.169-2.598-.982-4.686-.748-2.6.28-5.894.654-9.282-1.402-2.645-1.59-3.759-3.646-4.733-5.47-.882-1.635-1.625-3.037-3.295-3.832-2.831-1.356-5.476.608-8.864 3.085-2.877 2.15-6.126 4.534-10.535 5.796-6.636 1.87-15.128.748-23.389-3.132z" transform="translate(41.555 8.13)"/>
                <path d="M293.201 139.338c-.139 0-.278-.094-.325-.234-2.552-8.554-3.248-13.321-.603-17.107 2.924-4.16 7.982-5.89 11.184-5.142 2.135.514 3.202 1.823 4.316 3.225.975 1.216 1.95 2.478 3.76 3.412 4.872 2.524 11.787.935 15.22-2.15 3.203-2.851 4.734-8.133 4.27-14.443-.65-8.32-4.501-15.939-9.838-19.398-6.126-3.973-13.505-2.244-20.048-.701-5.476 1.262-10.21 2.384-12.437-.608-2.692-3.599.325-9.909 3.248-15.985 2.645-5.516 5.43-11.265 3.11-13.976-1.625-1.917-4.827-1.075-8.864-.047-5.012 1.309-11.277 2.991-17.31-.187-4.362-2.29-6.172-5.75-7.982-9.115-1.81-3.459-3.527-6.684-7.843-8.18-3.62-1.215-6.219-.233-9.003.795-2.692 1.028-5.523 2.057-9.374 1.075-5.29-1.355-9.096-5.609-11.37-8.928-.093-.14-.047-.374.093-.467.139-.094.371-.047.464.093 2.18 3.226 5.847 7.339 10.952 8.648 3.666.935 6.358-.047 8.957-1.029 2.738-1.028 5.615-2.103 9.467-.794 4.594 1.542 6.357 4.908 8.26 8.507 1.717 3.272 3.527 6.684 7.657 8.834 5.801 3.038 11.927 1.402 16.846.14 4.27-1.122 7.657-2.01 9.56.234 2.552 3.085-.14 8.74-3.016 14.724-2.831 5.89-5.755 11.966-3.295 15.238 1.949 2.617 6.497 1.589 11.74.374 6.358-1.45 14.248-3.32 20.606.794 5.522 3.6 9.513 11.405 10.163 19.912.51 6.544-1.16 12.013-4.502 15.051-3.62 3.225-10.905 4.908-16.01 2.244-1.95-1.029-3.063-2.384-3.991-3.6-1.068-1.355-1.996-2.523-3.899-2.99-3.759-.889-8.26 1.775-10.441 4.86-2.506 3.553-1.764 8.133.696 16.5.046.187-.046.374-.232.421h-.186z" transform="translate(41.555 8.13)"/>
                <path d="M223.59 31.785s-.046 0 0 0c-.139 0-.232-.047-.278-.14-4.826-7.152-6.822-16.454-4.084-19.212 1.16-1.121 2.877-.981 4.687-.841 1.996.14 4.038.327 5.43-1.215 1.02-1.122 1.067-2.478 1.114-3.927.046-1.589.139-3.225 1.485-4.534C234.17-.187 237.837.374 239.6.608c2.599.374 4.13 1.308 5.476 2.15 1.346.841 2.552 1.589 4.64 1.636 1.625.046 2.6-.327 3.528-.701.974-.421 1.949-.795 3.527-.468 3.666.748 6.31 4.3 7.24 7.292 1.438 4.72-.419 10.423-4.178 12.76-3.016 1.87-5.847.655-9.095-.794-2.924-1.262-6.265-2.711-10.535-2.384-4.965.42-7.564 2.992-11.462 6.918-1.393 1.402-2.97 2.945-4.873 4.674-.093.094-.186.094-.279.094zM222.152 12.2c-.975 0-1.857.14-2.46.748-2.46 2.43-.51 11.264 3.945 17.995 1.763-1.589 3.202-3.038 4.548-4.347 4.037-4.02 6.682-6.684 11.88-7.105 4.455-.374 7.843 1.122 10.86 2.431 3.248 1.402 5.8 2.524 8.492.841 3.434-2.15 5.197-7.619 3.852-11.966-.882-2.804-3.342-6.123-6.73-6.777-1.392-.28-2.18.047-3.109.42-.928.374-1.995.795-3.805.748-2.274-.093-3.62-.888-4.966-1.776-1.346-.841-2.691-1.683-5.197-2.056-1.671-.234-5.105-.748-7.054 1.121-1.16 1.122-1.253 2.524-1.3 4.02-.046 1.496-.093 3.038-1.253 4.347-1.578 1.823-3.944 1.636-5.986 1.45-.604-.048-1.16-.094-1.717-.094z" transform="translate(41.555 8.13)"/>
                <path d="M33.738 66.467h-.093c-.185-.047-.278-.234-.232-.42.836-2.712 2.135-5.236 3.852-7.339 6.126-7.666 17.124-11.686 28.68-10.47.835.093 1.67.187 2.46.28 2.784.374 5.615.748 8.353.187 5.43-1.122 7.564-4.954 9.884-9.068 1.903-3.365 3.806-6.824 7.704-8.88 5.847-3.132 11.323-.842 17.078 1.542 5.847 2.384 11.834 4.908 19.073 2.57 5.848-1.916 8.446-5.982 10.952-9.909 2.506-3.926 4.827-7.665 10.21-8.46 12.623-1.823 26.452 14.63 27.984 16.5 2.46 3.038 3.898 5.562 5.058 7.572 1.67 2.898 2.784 4.861 5.708 5.983 6.961 2.664 15.222-2.664 23.25-7.853 3.574-2.29 6.776-4.72 9.792-7.432.14-.14.371-.093.51.047.14.14.093.374-.046.514-3.063 2.711-6.265 5.189-9.838 7.479-8.168 5.282-16.614 10.75-23.854 7.946-3.109-1.215-4.269-3.225-6.032-6.263-1.16-2.01-2.553-4.487-5.012-7.479-1.532-1.87-15.13-18.042-27.38-16.266-5.06.748-7.194 4.16-9.7 8.133-2.46 3.88-5.197 8.227-11.323 10.19C123.304 38 116.9 35.337 111.238 33c-5.661-2.337-10.952-4.534-16.52-1.59-3.713 1.964-5.57 5.33-7.426 8.601-2.274 4.02-4.594 8.227-10.349 9.395-2.83.608-5.754.187-8.585-.187-.789-.093-1.624-.233-2.46-.28-11.323-1.169-22.043 2.71-28.076 10.236-1.624 2.01-2.924 4.488-3.713 7.105-.092.094-.232.187-.37.187z" transform="translate(41.555 8.13)"/>
                <path d="M233.568 104.562h-.093c-9.328 0-18.006-3.786-26.777-7.993l-1.346-.654c-7.935-3.786-16.103-7.713-24.828-8.6-11.601-1.17-22.878 3.084-33.784 7.244-8.725 3.319-17.728 6.731-27.01 7.479-10.348.841-20.604-1.683-30.535-4.113-7.24-1.777-14.711-3.553-22.136-4.114-1.903-.14-3.899-.187-5.801-.28-8.122-.28-16.521-.561-22.647-5.796-5.615-4.815-7.704-13.555-5.198-21.782.047-.187.232-.28.418-.234l26.452 6.778c7.286 1.87 15.5 3.973 23.297 1.87 6.636-1.777 12.019-6.357 17.263-10.798 2.877-2.477 5.894-5.001 9.096-7.058 11.555-7.479 26.684-9.021 39.492-4.02 5.012 1.963 9.7 4.861 14.248 7.666 6.868 4.254 14.015 8.647 22.043 9.582 8.446.982 16.939-2.01 25.153-4.861 9.374-3.272 19.073-6.684 28.633-4.067 7.796 2.15 14.48 8.554 16.939 16.313 1.485 4.628 1.485 9.395 0 13.509-3.527 9.582-14.294 13.929-22.88 13.929zm-57.035-18.136c1.346 0 2.692.047 4.038.187 8.864.888 17.078 4.861 25.06 8.647l1.346.655c8.724 4.16 17.31 7.899 26.498 7.899h.093c8.307 0 18.795-4.207 22.136-13.415 1.439-3.973 1.439-8.6 0-13.041-2.413-7.525-8.864-13.742-16.474-15.846-9.328-2.57-18.517.655-28.216 4.067-8.26 2.898-16.846 5.89-25.431 4.908-8.214-.935-15.361-5.422-22.322-9.722-4.502-2.805-9.189-5.703-14.108-7.62-12.623-4.954-27.473-3.411-38.843 3.974-3.156 2.056-6.126 4.58-9.003 7.011-5.29 4.487-10.766 9.115-17.542 10.938-7.935 2.103-16.289 0-23.621-1.87l-26.127-6.684c-2.32 7.853-.279 16.126 5.058 20.707 5.94 5.048 14.2 5.375 22.183 5.655 1.902.047 3.898.14 5.847.28 7.518.562 15.036 2.385 22.275 4.114 9.885 2.384 20.095 4.908 30.35 4.067 9.19-.748 18.146-4.16 26.824-7.432 9.653-3.646 19.677-7.479 29.98-7.479z" transform="translate(41.555 8.13)"/>
                <path d="M53.647 229.223c-.093 0-.186-.047-.232-.094-6.033-5.375-9.42-11.03-9.792-16.5-.14-1.729.093-3.412.278-5.048.372-3.085.65-5.702-1.253-7.9-1.995-2.29-4.919-2.196-7.982-2.056-2.83.094-5.754.234-8.353-1.449-4.92-3.131-7.796-12.48-7.054-22.716.743-9.723 4.455-17.014 9.931-19.398 8.26-3.646 20.002 3.692 25.71 10.002 3.388 3.787 4.501 6.825 5.522 9.816 1.021 2.898 1.996 5.61 5.105 8.694 6.544 6.544 16.939 9.115 23.807 8.274 3.017-.374 5.151-1.356 6.033-2.805 1.439-2.337-.696-5.656-2.877-9.115-2.506-3.926-5.337-8.366-3.527-12.293 3.341-7.291 19.955-6.544 29.654-4.347 12.39 2.805 19.491 7.058 20.002 11.966.464 4.207-3.806 7.526-7.936 10.704-3.805 2.945-7.379 5.75-6.73 8.834.743 3.506 6.776 5.89 11.65 5.61 9.513-.468 16.01-11.219 18.33-17.482 2.46-6.59 1.995-11.92 1.578-16.22-.371-4.113-.65-7.385 1.949-9.675 3.295-2.851 8.26-1.59 13.04-.42 4.92 1.261 9.514 2.43 12.53-.421 3.388-3.226 3.063-10.05.51-14.023-4.222-6.497-14.989-5.656-20.79-5.188-10.534.84-15.175 3.038-23.575 7.058-1.995.934-4.269 2.056-6.821 3.225-13.18 6.03-23.482 6.918-31.557 2.71-5.801-3.037-9.932-8.646-13.923-14.069-4.965-6.73-9.652-13.087-17.31-14.77-4.455-.982-9.049-.047-13.504.888-1.67.327-3.388.701-5.058.935-9.607 1.402-19.816-.654-28.82-5.89-9.002-5.235-15.917-13.04-19.537-22.109-3.48-8.694-3.666-20.192 3.666-26.409 7.008-5.936 17.217-4.394 27.195-1.823l.279.047c.185.047.278.234.232.42-.047.188-.232.281-.418.234l-.279-.046c-9.792-2.524-19.815-4.02-26.59 1.682C-.326 74.04-.094 85.257 3.248 93.671c3.573 8.928 10.395 16.64 19.212 21.782 8.818 5.141 18.934 7.198 28.355 5.796 1.67-.234 3.388-.608 5.012-.935 4.548-.935 9.235-1.87 13.83-.888 7.889 1.73 12.854 8.507 17.68 15.05 3.945 5.33 8.029 10.892 13.69 13.836 7.844 4.114 17.96 3.226 30.908-2.71 2.599-1.17 4.826-2.244 6.822-3.226 8.492-4.066 13.133-6.31 23.807-7.151 5.94-.468 16.985-1.356 21.44 5.468 2.738 4.16 3.016 11.406-.603 14.911-3.249 3.132-8.307 1.823-13.18.608-4.594-1.169-9.374-2.384-12.39.234-2.368 2.056-2.09 5-1.718 9.067.371 4.394.882 9.816-1.624 16.547-2.413 6.404-9.096 17.435-18.98 17.95-6.405.326-11.649-2.992-12.345-6.17-.743-3.506 3.016-6.451 7.007-9.536 3.945-3.085 8.075-6.31 7.658-10.096-.51-4.581-7.426-8.601-19.491-11.359-10.21-2.29-25.896-2.617-28.912 3.927-1.624 3.599.974 7.712 3.48 11.638 2.32 3.693 4.548 7.152 2.924 9.863-.974 1.636-3.341 2.758-6.543 3.132-7.054.84-17.682-1.777-24.364-8.46-3.202-3.226-4.223-6.03-5.29-8.975-1.022-2.898-2.089-5.89-5.384-9.582-5.569-6.17-16.985-13.322-24.92-9.863-5.245 2.29-8.818 9.349-9.514 18.837-.743 10.003 1.995 19.07 6.729 22.062 2.413 1.543 5.244 1.45 7.982 1.31 3.249-.141 6.311-.235 8.539 2.29 2.135 2.383 1.763 5.328 1.392 8.46-.185 1.59-.371 3.225-.278 4.908.371 5.235 3.666 10.75 9.56 15.986.139.14.139.327.046.514.046.28-.046.327-.14.327z" transform="translate(41.555 8.13)"/>
                <path d="M160.012 278.676c-4.78 0-9.792-1.496-14.061-4.394-2.738-1.87-5.383-4.3-7.89-6.637-5.94-5.516-11.555-10.704-18.794-9.442-3.249.56-6.08 2.477-8.864 4.3-.557.374-1.067.701-1.624 1.075-11.37 7.339-25.014 10.657-38.426 9.395-6.45-.607-12.947-2.85-17.82-6.216-5.662-3.88-9.003-8.975-9.653-14.77-.557-5.142 1.16-9.209 2.97-12.902 1.81-3.692 4.41-7.338 7.565-10.517.139-.14.325-.14.464 0 10.163 9.022 26.034 15.285 40.467 15.94 8.632.42 12.67-.748 18.238-2.338 4.92-1.402 11.045-3.178 22.554-4.58 22.74-2.805 34.11 5.375 38.89 10.47 2.366 2.57 3.99 5.235 4.826 7.993 2.274 7.619-2.089 16.827-9.7 20.566-2.784 1.403-5.94 2.057-9.142 2.057zm-38.61-21.361c6.543 0 11.926 5.001 17.124 9.816 2.506 2.337 5.105 4.72 7.796 6.59 6.961 4.721 15.779 5.61 22.554 2.29 7.286-3.599 11.51-12.433 9.328-19.725-.789-2.617-2.367-5.235-4.64-7.712-4.688-5.048-15.872-13.041-38.333-10.283-11.463 1.449-17.589 3.178-22.461 4.58-5.616 1.637-9.7 2.758-18.47 2.384-14.433-.7-30.35-6.917-40.653-15.892-3.017 3.085-5.476 6.59-7.193 10.096-1.764 3.6-3.434 7.526-2.878 12.527 1.3 11.826 14.48 19.164 26.824 20.333 13.272 1.262 26.777-2.057 38.007-9.302.557-.327 1.068-.7 1.625-1.075 2.83-1.87 5.754-3.833 9.096-4.393.788-.14 1.531-.234 2.273-.234z" transform="translate(41.555 8.13)"/>
                <path d="M53.647 229.223c-.093 0-.186-.047-.232-.094-.14-.14-.14-.374 0-.514 9.606-9.769 22.182-14.21 31.325-11.124 3.48 1.168 5.754 3.131 7.75 4.86 2.227 1.964 4.037 3.506 6.59 2.946 2.923-.608 3.99-3.272 5.197-6.357 1.114-2.852 2.413-6.03 5.476-7.806 5.476-3.132 11.834.841 19.166 5.422 7.75 4.861 16.568 10.33 25.989 8.04 4.826-1.17 7.425-3.787 10.21-6.498 3.155-3.131 6.403-6.403 13.179-7.385 6.265-.935 11.277.748 14.943 1.963 3.063 1.029 5.29 1.73 6.59.468 2.32-2.337-.928-8.554-4.362-15.098-4.224-8.04-8.586-16.407-4.966-20.987 2.181-2.805 7.1-3.973 13.83-3.272 6.125.607 12.947 2.758 18.284 5.702 1.531.842 2.97 1.777 4.316 2.805.139.093.185.327.092.467-.092.14-.324.187-.464.094-1.345-.982-2.738-1.917-4.27-2.711-10.487-5.843-26.776-8.32-31.185-2.618-3.341 4.254 1.114 12.714 5.059 20.24 3.712 7.058 6.914 13.18 4.223 15.892-1.578 1.589-3.991.794-7.286-.28-3.62-1.17-8.54-2.805-14.619-1.917-6.543.981-9.699 4.113-12.762 7.198-2.691 2.711-5.522 5.469-10.534 6.684-9.7 2.337-18.61-3.225-26.499-8.133-7.146-4.44-13.318-8.32-18.423-5.422-2.878 1.636-4.038 4.58-5.198 7.432-1.253 3.132-2.413 6.123-5.708 6.824-2.877.608-4.873-1.121-7.193-3.085-1.95-1.682-4.177-3.599-7.518-4.72-8.91-2.992-21.208 1.402-30.629 10.984-.186-.047-.278 0-.371 0z" transform="translate(41.555 8.13)"/>
            </g>
            <g fill="#000">
                <path d="M153.423 1.07H138.85c-.186 0-.372-.169-.372-.45 0-.282.14-.451.372-.451h14.572c.185 0 .37.169.37.45 0 .282-.185.451-.37.451zM267.584 1.07H235.24c-.186 0-.372-.169-.372-.45 0-.282.14-.451.372-.451h32.345c.186 0 .372.169.372.45 0 .282-.186.451-.372.451zM.418 1.295c-.186 0-.325-.168-.372-.394 0-.225.14-.45.325-.45l103.72-.282c.186 0 .325.169.372.394 0 .226-.14.45-.325.45L.418 1.296z" transform="translate(41.555 8.13) translate(80.749 340.75)"/>
            </g>
            <g>
                <path fill="#274D76" d="M36.476 165.84c-.882 3.6-1.763 7.199-2.691 10.751-15.454-6.544-28.727-4.487-32.346 2.104-.65 1.168-2.042 4.44.092 10.517 19.352-.327 38.75-.608 58.102-.935v-20.1c-7.703-.794-15.453-1.542-23.157-2.336z" transform="translate(41.555 8.13) translate(151.288 186.968)"/>
                <g fill="#000">
                    <path d="M20.466 10.377c-.14 0-.232-.094-.325-.187-.325-.701-.743-1.45-1.16-2.15-.047-.094-.232-.374-.464-.748C15.686 2.852 13.04.42 11.37.842c-.093 0-.51.14-.836.56-.278.374-.417.888-.324 1.543l.046.233c0 .094.046.14.046.234.047.187-.046.374-.232.42-.185.048-.37-.046-.417-.233-.047-.093-.047-.187-.047-.327l-.046-.234c-.093-.841.093-1.542.51-2.056.464-.561 1.068-.748 1.207-.795 2.692-.701 6.126 3.926 7.89 6.778.231.373.417.654.463.747.464.748.836 1.496 1.207 2.244.093.187 0 .374-.14.467-.139-.046-.185-.046-.231-.046z" transform="translate(41.555 8.13) translate(151.288 186.968) translate(83.07)"/>
                    <path d="M20.837 10.096C17.17 7.76 13.505 5.47 9.885 3.132c-.093-.094-.186-.14-.232-.234h.232l8.956 4.16c.14.234.325.514.464.748.465.841.975 1.59 1.532 2.29zM10.442 20.66c-.325 0-3.295-.14-4.92-2.805-1.113-1.822-1.206-4.113-.185-6.03.093-.186.278-.233.464-.14.186.094.232.328.14.468-.929 1.683-.836 3.74.138 5.329 1.485 2.383 4.223 2.477 4.363 2.477.185 0 .324.187.324.374s-.139.327-.324.327z" transform="translate(41.555 8.13) translate(151.288 186.968) translate(83.07)"/>
                    <path d="M9.885 25.521h-.093c-.279-.093-2.599-.935-3.249-3.319-.417-1.449 0-2.664.279-3.271.093-.187.278-.234.464-.187.186.093.232.28.186.467-.232.514-.557 1.59-.232 2.804.556 2.057 2.598 2.758 2.784 2.852.186.046.278.28.232.42-.093.14-.232.234-.371.234z" transform="translate(41.555 8.13) translate(151.288 186.968) translate(83.07)"/>
                    <path d="M12.112 32.018c-.046 0-.139 0-.185-.046-.743-.468-1.485-1.029-2.135-1.636-.65-.608-1.3-1.216-1.81-2.01-.928-1.543-.789-3.319-.557-4.534.047-.187.232-.328.418-.28.185.046.325.233.278.42-.232 1.075-.325 2.664.464 4.066.418.702 1.021 1.263 1.671 1.87.603.561 1.3 1.075 1.996 1.543.185.093.232.327.092.467 0 .047-.139.14-.232.14zM31.51 36.038c-.185 0-.37-.14-.37-.374 0-3.552-.558-7.011-1.671-10.283-.279-.841-.65-1.683-.975-2.524-.093-.187 0-.374.186-.468.185-.093.371 0 .464.187.371.842.696 1.683 1.02 2.571 1.16 3.319 1.718 6.871 1.718 10.517 0 .234-.186.374-.371.374zM11.555 14.21h-.092c-2.46-.795-4.827-1.73-7.054-2.852C1.856 10.096.418 9.115.139 7.618c-.093-.607 0-1.214.279-1.869.092-.14.139-.233.232-.327.093-.093.232-.187.325-.28.185-.094.37-.047.464.14.092.187.046.374-.14.467-.092.047-.139.094-.185.14-.047.047-.093.094-.14.187-.231.515-.324.982-.231 1.45.185 1.075 1.16 1.916 3.851 3.225 2.228 1.075 4.548 2.01 6.961 2.804.186.047.279.234.232.42.047.141-.092.235-.232.235z" transform="translate(41.555 8.13) translate(151.288 186.968) translate(83.07)"/>
                </g>
                <g fill="#000">
                    <path d="M28.355 30.57c-.186 0-.325-.14-.325-.328-.232-2.524-.51-5.095-.743-7.619 0-.187.14-.374.325-.374.186-.047.372.14.372.327.232 2.524.51 5.095.742 7.62 0 .186-.14.327-.371.373.046 0 0 0 0 0zm-15.779 0c-.185 0-.324-.14-.37-.328l-.047-1.823c-3.806 0-7.054-1.496-9.282-4.16C.65 21.595-.139 18.042.557 14.256c.696-3.739 2.83-7.245 5.986-9.909.836-.701 1.671-1.309 2.553-1.776C15.36-1.075 22.74-.327 26.638 4.394c2.042 2.477 2.923 5.749 2.46 9.255 0 .093-.047.187-.047.28-.046.187-.232.327-.418.28-.185-.046-.325-.233-.278-.42 0-.094.046-.14.046-.234.418-3.318-.371-6.403-2.32-8.694C22.415.421 15.407-.327 9.42 3.178c-.836.468-1.671 1.076-2.46 1.73-3.016 2.524-5.058 5.89-5.754 9.489-.65 3.552.139 6.917 2.18 9.441 2.135 2.571 5.338 3.974 9.05 3.88.186 0 .325.094.325.28v.094l.046 2.15c.093.14-.046.327-.232.327z" transform="translate(41.555 8.13) translate(151.288 186.968) translate(135.973 8.414)"/>
                    <path d="M28.68 23.09c-.372 0-.79-.046-1.16-.14-.186-.046-.279-.233-.233-.42.047-.187.233-.28.418-.234.325.093.65.14.975.14 2.227 0 4.084-1.823 4.084-4.113 0-2.29-1.81-4.113-4.084-4.113-.186 0-.65 0-1.207.187-1.624.56-2.413 2.056-2.692 2.664-.092.187-.278.28-.464.187-.185-.094-.278-.28-.185-.468.278-.7 1.206-2.43 3.11-3.085.695-.233 1.206-.233 1.391-.233 2.646 0 4.78 2.15 4.78 4.767 0 2.618-2.088 4.862-4.733 4.862z" transform="translate(41.555 8.13) translate(151.288 186.968) translate(135.973 8.414)"/>
                    <path d="M28.819 13.836h-.65c-.093 0-.371.046-.789.187-.185.046-.742.28-1.346.747-.788.608-1.299 1.31-1.577 1.823-1.207-3.178-2.46-6.356-3.667-9.535L9.235 2.851C15.546-.7 22.74.327 26.36 4.627c2.97 3.46 2.553 8.04 2.46 9.209zM12.623 29.681c.882-.093 1.856-.327 2.877-.654 4.27-1.402 6.961-4.347 8.307-6.077-.975.842-2.228 1.73-3.805 2.524-2.97 1.543-5.709 2.01-7.565 2.197.047.701.14 1.356.186 2.01z" transform="translate(41.555 8.13) translate(151.288 186.968) translate(135.973 8.414)"/>
                </g>
                <g>
                    <path fill="#74BAAB" d="M85.482 56.932c-17.96 8.88-24.828 5.048-26.916 3.459-13.087-9.816-2.784-48.332-1.531-52.959 13.365 10.657 22.693 32.112 28.447 49.5z" transform="translate(41.555 8.13) translate(151.288 186.968) translate(31.557 51.884)"/>
                    <path fill="#000" d="M90.726 139.385c-3.99 0-13.133-.748-21.765-6.638-8.585-5.89-13.968-14.957-18.006-30.195-2.32-8.881-4.13-19.445-6.126-32.532l-.139-1.029c-.417-2.851-.882-5.796-1.3-8.834l-.092-.514c-.603-3.973-1.114-7.946-1.624-12.2-.186-1.683-.372-3.132-.51-4.44 0-.187.138-.374.324-.374s.371.14.371.327c.14 1.262.279 2.758.464 4.394.51 4.206 1.021 8.18 1.578 12.153l.093.514c.464 3.038.882 5.983 1.3 8.834l.139 1.028c1.995 13.088 3.805 23.652 6.126 32.486 3.99 15.098 9.281 24.025 17.727 29.821 10.07 6.918 20.93 6.591 22.972 6.498 9.003-.608 17.356-4.721 24.828-12.294 5.708-5.796 8.863-11.638 9.467-12.713.092-.187.278-.234.464-.14.185.093.232.28.139.467-1.253 2.43-13.087 23.932-34.852 25.38-.232-.046-.835 0-1.578 0z" transform="translate(41.555 8.13) translate(151.288 186.968) translate(31.557 51.884)"/>
                    <path fill="#000" d="M33.228 117.136c-.047 0-.047 0 0 0L.696 113.864c-.093 0-.186-.047-.232-.14-.046-.094-.093-.188-.093-.281.372-3.74.836-7.479 1.3-11.078C3.016 91.848 4.78 81.238 6.868 70.861 13.783 36.739 20.326 4.487 37.543.7c3.295-.748 7.1-.234 11.324 1.402 2.83 1.122 5.662 2.805 8.4 4.955.139.14.185.327.046.514-.14.14-.325.187-.51.047-2.646-2.103-5.43-3.74-8.215-4.861-4.083-1.636-7.75-2.104-10.952-1.402-7.518 1.635-13.411 8.927-18.516 22.903-4.455 12.106-7.75 27.671-11.602 46.695-2.088 10.33-3.852 20.894-5.198 31.411-.464 3.506-.881 7.105-1.253 10.704l31.882 3.319 1.346-5.516c.696-2.851 1.392-5.702 2.135-8.554l8.307-33.56c.046-.14.185-.28.324-.28.186 0 .372.14.372.326v.094l-8.307 33.56c-.696 2.852-1.392 5.703-2.135 8.554l-1.439 5.796c-.046.187-.185.328-.324.328z" transform="translate(41.555 8.13) translate(151.288 186.968) translate(31.557 51.884)"/>
                    <path fill="#000" d="M91.469 117.182c-.418 0-.79 0-1.16-.046-1.625-.14-4.966-.655-8.632-2.852-4.084-2.43-7.472-6.263-10.442-11.639-7.75-14.162-10.906-37.487-13.644-58.053l-.139-1.075c-1.253-9.349-2.784-20.987-10.395-24.4-.046 0-3.341-1.449-7.286-.7-12.855 2.43-19.677 53.706-22.6 84.042-.418 4.16-.79 8.366-1.114 12.573 0 .187-.186.327-.371.327-.186 0-.325-.187-.325-.374.325-4.206.742-8.46 1.114-12.573 3.62-37.3 10.534-82.266 23.157-84.697 4.176-.794 7.518.655 7.657.748 7.982 3.552 9.56 15.425 10.813 24.96l.14 1.075c2.737 20.52 5.846 43.75 13.55 57.82 2.877 5.282 6.219 9.021 10.21 11.405 3.573 2.15 6.775 2.665 8.353 2.758 10.999.795 20.048-9.675 23.436-14.21.046-.093.139-.186.185-.233l.093-.14c.093-.14.325-.187.51-.047.14.093.186.327.047.514l-.093.094c-.046.093-.139.14-.185.233-9.19 12.293-17.914 14.49-22.88 14.49z" transform="translate(41.555 8.13) translate(151.288 186.968) translate(31.557 51.884)"/>
                    <path fill="#000" d="M96.991 116.2c-.139 0-.232-.093-.325-.186-2.366-4.861-3.573-9.442-3.666-13.555-.093-5.142 1.624-8.741 3.063-10.845 1.578-2.29 3.202-3.318 3.295-3.365.186-.094.371-.047.464.093.093.14.046.374-.093.468-.046.047-6.218 4.113-6.033 13.602.093 4.02 1.3 8.507 3.574 13.274.092.187 0 .374-.14.468-.046 0-.092.047-.139.047z" transform="translate(41.555 8.13) translate(151.288 186.968) translate(31.557 51.884)"/>
                    <path fill="#274D76" d="M45.2 69.88c-.046-.328-.092-.702-.139-1.029-2.784 11.171-5.522 22.39-8.306 33.56-1.16 4.768-2.367 9.583-3.527 14.35-1.717-.186-3.388-.327-5.105-.514l2.784-13.835L42.045 47.35l3.156 22.53z" transform="translate(41.555 8.13) translate(151.288 186.968) translate(31.557 51.884)"/>
                </g>
                <g>
                    <path fill="#FFF3A1" d="M76.062 122.978c-2.553 7.012-4.456 11.639-4.827 12.48l-.046-.046c-4.502-4.16-9.05-8.274-13.551-12.434-.14-.14-.279-.233-.371-.374-4.92-4.534-9.839-9.02-14.758-13.555-2.413-2.197-4.78-4.394-7.193-6.59-2.274-8.32-4.594-16.687-6.868-25.007-2.181-6.544-4.827-13.696-8.075-20.614-3.11-6.73-6.776-13.274-10.906-18.883C6.59 34.075 3.434 30.663 0 27.905c1.3-5.329 2.599-10.657 3.852-16.08.417-1.822.882-3.645 1.3-5.468.463-2.01.927-4.067 1.438-6.077 3.11.421 6.404.982 9.838 1.683 3.48.748 6.776 1.543 9.839 2.384-.697 4.955-2.135 15.659-4.224 30.336-1.299 9.208-1.763 12.48-.417 13.18 2.274 1.123 6.59-6.17 12.855-14.676 5.847-7.946 13.411-16.92 22.6-21.128V7.2h22.275v5.14c1.81.842 3.295 1.777 4.363 2.618 6.033 4.581 8.956 12.527 9.885 22.203 2.413 26.456-10.257 65.86-17.542 85.818z" transform="translate(41.555 8.13) translate(151.288 186.968) translate(88.638 31.317)"/>
                    <path fill="#000" d="M35.316 102.88c-.14 0-.325-.094-.325-.281-1.206-5.47-3.295-14.07-6.497-23.885l-.371-1.122c-.047-.14 0-.327.185-.42 6.405-3.32 12.438-7.34 18.006-11.967 6.358-5.282 12.066-11.311 17.032-17.996.093-.14.325-.187.464-.093.14.093.186.327.093.467-4.966 6.731-10.72 12.808-17.124 18.136-5.523 4.581-11.51 8.554-17.867 11.873l.278.841c3.202 9.863 5.337 18.463 6.544 23.979.046.187-.093.374-.279.42-.093.047-.14.047-.14.047z" transform="translate(41.555 8.13) translate(151.288 186.968) translate(88.638 31.317)"/>
                    <g fill="#000">
                        <path d="M48.82 18.977c-.092 0-.185-.046-.278-.14-.14-.14-.093-.374.046-.514l5.801-4.768c.14-.14.372-.093.51.047.14.14.094.374-.046.514l-5.8 4.768c-.093.093-.186.093-.233.093zM63.392 14.21c-.139 0-.278-.094-.324-.234L60.84 8.32c-.093-.187 0-.374.186-.467.185-.094.37 0 .464.187l2.227 5.655c.093.187 0 .374-.185.468-.047.047-.093.047-.14.047zM66.548 68.991c-.14 0-.278-.093-.325-.233l-2.227-5.656c-.093-.187 0-.374.185-.468.186-.093.372 0 .464.187l2.228 5.656c.093.187 0 .374-.186.467-.046.047-.093.047-.139.047zM73.463 108.301c-.14 0-.279-.093-.325-.233l-2.228-5.656c-.092-.187 0-.374.186-.468.186-.093.371 0 .464.187l2.228 5.656c.092.187 0 .374-.186.468-.046.046-.093.046-.14.046zM42.834 64.083c-.14 0-.279-.093-.325-.233l-2.227-5.656c-.093-.187 0-.374.185-.468.186-.093.371 0 .464.187l2.228 5.656c.093.187 0 .374-.186.468-.046.046-.093.046-.14.046zM84.6 60.484c-.139 0-.278-.093-.324-.234l-2.228-5.655c-.093-.187 0-.374.186-.468.185-.093.371 0 .464.187l2.227 5.656c.093.187 0 .374-.185.467-.047.047-.093.047-.14.047zM68.219 54.828c-.14 0-.279-.093-.325-.233l-2.228-5.656c-.092-.187 0-.374.186-.468.186-.093.371 0 .464.187l2.228 5.656c.092.187 0 .374-.186.468-.046.046-.093.046-.14.046zM67.105 85.538c-.14 0-.279-.094-.325-.234l-2.227-5.656c-.093-.187 0-.374.185-.467.186-.094.371 0 .464.187l2.228 5.656c.093.187 0 .374-.186.467-.046.047-.093.047-.14.047zM86.828 40.432c-.14 0-.278-.094-.325-.234l-2.227-5.656c-.093-.187 0-.374.185-.467.186-.094.372 0 .464.187l2.228 5.656c.093.187 0 .374-.186.467-.046.047-.093.047-.139.047zM67.105 24.119c-.093 0-.186-.047-.232-.094-.14-.14-.14-.374 0-.514l4.687-5.141c.14-.14.371-.14.51 0 .14.14.14.374 0 .514l-4.687 5.141c-.092.047-.185.094-.278.094zM14.85 26.69c-.092 0-.185-.047-.232-.094-.139-.14-.139-.374 0-.514l4.687-5.142c.14-.14.372-.14.51 0 .14.14.14.374 0 .515l-4.686 5.141c-.093.047-.186.094-.279.094zM18.795 52.818c-.093 0-.186-.046-.232-.093-.14-.14-.14-.374 0-.514l3.063-3.366c.139-.14.371-.14.51 0 .14.14.14.374 0 .515l-3.063 3.365c-.092.047-.185.093-.278.093zM54.807 46.368c-.093 0-.186-.047-.232-.093-.14-.14-.14-.374 0-.515l4.687-5.141c.14-.14.371-.14.51 0 .14.14.14.374 0 .514l-4.687 5.142c-.092.046-.185.093-.278.093zM46.454 102.412c-.093 0-.186-.047-.232-.094-.14-.14-.14-.374 0-.514l4.687-5.142c.139-.14.371-.14.51 0 .14.14.14.374 0 .515l-4.687 5.141c-.093.047-.185.094-.278.094zM42.927 50.154c-.093 0-.186-.047-.232-.093-.14-.14-.14-.374 0-.514l4.687-5.142c.14-.14.371-.14.51 0 .14.14.14.374 0 .514l-4.687 5.142c-.046.046-.139.093-.278.093zM30.211 71.562c-.093 0-.185-.047-.232-.093-.14-.14-.14-.374 0-.515l4.687-5.141c.14-.14.372-.14.51 0 .14.14.14.374 0 .514l-4.686 5.142c-.093.093-.186.093-.279.093zM30.211 55.903c-.093 0-.185-.046-.232-.093-.14-.14-.14-.374 0-.514l4.687-5.142c.14-.14.372-.14.51 0 .14.14.14.374 0 .514L30.49 55.81c-.093.093-.186.093-.279.093zM7.704 34.168c-.093 0-.186-.046-.232-.093-.14-.14-.14-.374 0-.514l1.763-1.917c.14-.14.371-.14.51 0 .14.14.14.374 0 .515l-1.763 1.916c-.093.047-.186.093-.278.093zM86.828 21.361c-.093 0-.14-.047-.232-.093l-5.8-4.768c-.14-.14-.187-.327-.047-.514.139-.14.325-.187.51-.047l5.801 4.768c.14.14.186.327.046.514-.092.093-.185.14-.278.14zM54.946 29.775c-.046 0-.093 0-.139-.047-.186-.094-.278-.28-.186-.467l2.228-5.656c.093-.187.278-.28.464-.187.186.093.278.28.186.467l-2.228 5.656c-.046.14-.186.234-.325.234zM67.105 123.352c-.046 0-.093 0-.14-.047-.185-.093-.278-.28-.185-.467l2.228-5.656c.092-.187.278-.28.464-.187.185.094.278.28.185.468l-2.227 5.655c-.047.187-.186.234-.325.234zM32.532 44.031c-.047 0-.093 0-.14-.047-.185-.093-.278-.28-.185-.467l2.227-5.656c.093-.187.279-.28.464-.187.186.094.279.28.186.467l-2.228 5.656c-.046.187-.185.234-.324.234zM45.897 36.786c-.047 0-.093 0-.14-.047-.185-.093-.278-.28-.185-.467l2.228-5.656c.092-.187.278-.28.464-.187.185.094.278.28.185.467l-2.227 5.656c-.047.14-.186.234-.325.234zM9.885 14.21c-.047 0-.093 0-.14-.047-.185-.094-.278-.28-.185-.468l2.227-5.655c.093-.187.279-.28.465-.187.185.093.278.28.185.467l-2.227 5.703c-.047.14-.186.187-.325.187zM41.024 27.11c-.186 0-.325-.14-.325-.327l-.696-5.282c-.046-.187.093-.374.279-.374.185-.046.37.094.37.28l.697 5.283c.046.187-.093.374-.279.374l-.046.046zM72.349 39.544c-.093 0-.14-.047-.232-.094l-5.801-4.767c-.14-.14-.186-.328-.046-.515.139-.14.324-.187.51-.046l5.801 4.767c.14.14.186.328.046.515-.046.093-.185.14-.278.14zM71.235 91.52c-.185 0-.325-.14-.371-.326 0-.187.14-.374.325-.374l7.471-.187c.186 0 .325.14.372.327 0 .187-.14.374-.325.374l-7.472.187zM83.07 82.827c-.187 0-.326-.14-.372-.327 0-.187.139-.374.325-.374l3.48-.094c.186 0 .371.14.371.327s-.139.374-.324.374l-3.48.094zM57.545 91.52c-.093 0-.14-.046-.232-.093l-5.8-4.767c-.14-.14-.187-.327-.047-.514.139-.14.325-.187.51-.047l5.801 4.767c.14.14.186.328.046.515-.092.093-.185.14-.278.14zM56.06 76.423c-.186 0-.325-.14-.371-.327v-7.572c0-.187.139-.374.325-.374.185 0 .324.14.37.327v7.572c.047.234-.138.374-.324.374zM76.2 81.378c-.185 0-.324-.14-.324-.28l-1.207-7.433c-.046-.187.093-.374.279-.42.185-.047.371.093.417.28l1.207 7.432c.046.187-.093.374-.278.42H76.2zM57.87 60.017c-.093 0-.14-.047-.232-.094l-5.801-4.767c-.14-.14-.186-.328-.046-.515.139-.14.324-.187.51-.046l5.8 4.767c.14.14.187.328.047.515-.092.14-.185.14-.278.14zM7.1 3.178c-.092 0-.139-.046-.232-.093l-2.46-2.01C4.27.935 4.224.748 4.363.561c.14-.14.325-.187.51-.047l2.46 2.01c.14.14.186.327.047.514-.093.094-.186.14-.279.14zM4.734 21.361c-.093 0-.14-.047-.232-.093l-4.13-3.366c-.14-.14-.186-.327-.047-.514.14-.14.325-.187.51-.047l4.13 3.366c.14.14.186.327.047.514-.046.093-.14.14-.278.14zM60.469 116.528c-.093 0-.14-.047-.232-.094l-5.801-4.767c-.14-.14-.186-.328-.047-.514.14-.14.325-.187.51-.047l5.802 4.767c.139.14.185.328.046.515-.093.093-.185.14-.278.14zM40.7 93.671c-.094 0-.14-.047-.233-.093l-5.8-4.768c-.14-.14-.186-.327-.047-.514.14-.14.325-.187.51-.047l5.801 4.768c.14.14.186.327.047.514-.047.14-.186.14-.279.14zM92.304 52.07c-.093 0-.14-.046-.232-.093l-5.476-4.487c-.14-.14-.186-.327-.046-.514.139-.14.324-.187.51-.047l5.476 4.487c.14.14.186.327.047.514-.047.094-.14.14-.279.14zM93.14 32.018c-.093 0-.14-.046-.233-.093L88.731 28.7c-.14-.14-.186-.328-.047-.515.14-.187.325-.187.51-.046l4.177 3.225c.14.14.186.327.047.514-.093.094-.186.14-.279.14zM23.993 10.33c-.093 0-.14-.047-.232-.093l-5.059-4.114c-.14-.14-.185-.327-.046-.514.139-.14.325-.187.51-.047l5.059 4.114c.139.14.185.327.046.514-.046.093-.186.14-.278.14zM85.343 73.852c-.14 0-.278-.093-.325-.233l-2.877-6.965c-.093-.187 0-.374.186-.467.185-.094.37 0 .464.187l2.877 6.964c.093.187 0 .374-.186.468-.046.046-.093.046-.139.046zM77.222 31.13c-.047 0-.093 0-.14-.047-.185-.093-.278-.28-.185-.467l2.227-5.656c.093-.187.279-.28.465-.187.185.094.278.28.185.468l-2.227 5.655c-.047.187-.186.234-.325.234zM44.18 80.49c-.047 0-.093 0-.14-.047-.185-.093-.278-.28-.185-.467l2.227-5.656c.093-.187.279-.28.465-.187.185.093.278.28.185.467l-2.227 5.656c-.047.14-.186.234-.325.234zM75.597 49.173c-.046 0-.092 0-.139-.047-.185-.094-.278-.28-.185-.468l2.227-5.655c.093-.187.279-.28.464-.187.186.093.279.28.186.467l-2.228 5.656c-.092.187-.185.234-.325.234zM62.279 102.692c-.047 0-.093 0-.14-.047-.185-.093-.278-.28-.185-.467l2.227-5.656c.093-.187.279-.28.464-.187.186.094.279.28.186.468l-2.228 5.656c-.046.14-.185.233-.324.233zM72.117 66.888c-.046 0-.093 0-.14-.047-.185-.093-.278-.28-.185-.467l2.228-5.656c.092-.187.278-.28.464-.187.185.093.278.28.185.467l-2.227 5.656c-.047.187-.186.234-.325.234zM75.597 8.32c-.092 0-.185-.047-.278-.093L71.746 4.3c-.14-.14-.14-.374 0-.514.139-.14.37-.14.51 0l3.574 3.926c.139.14.139.374 0 .515-.093.046-.186.093-.233.093z" transform="translate(41.555 8.13) translate(151.288 186.968) translate(88.638 31.317) translate(.464 5.609)"/>
                    </g>
                </g>
            </g>
            <g fill="#000">
                <path d="M41.674 31.224c-.093 0-.14-.047-.232-.094-.372-.28-.743-.607-1.068-.935-.37-.374-.789-.748-1.16-1.121-.046-.047-.046-.047-.046-.094-.464-1.122-1.021-2.244-1.717-3.272-1.95-2.991-4.177-4.674-9.56-7.946-11.973-7.245-14.34-7.011-15.64-6.17-.139.094-.324.234-.464.327-.092.094-.278.14-.417.047-.279-.187-.65-.42-1.068-.701-.232-.14-.742-.514-1.392-.935-.696-.514-1.392-1.028-2.088-1.59-.14-.14-.186-.326-.047-.513.14-.14.325-.187.51-.047.697.56 1.393 1.075 2.09 1.542.649.468 1.113.795 1.345.935.325.187.603.374.835.561.093-.093.232-.187.325-.234 1.578-1.028 4.038-1.308 16.336 6.17 5.476 3.319 7.75 5.048 9.792 8.133.696 1.029 1.253 2.15 1.717 3.32.324.373.696.7 1.067 1.027.232.234.464.421.743.655l.881-1.543c.696-1.262 1.439-2.57 2.135-3.833l-2.599-1.635c-10.488-6.591-20.976-13.135-31.51-19.726-.186-.093-.232-.327-.093-.467.093-.187.325-.234.464-.094C21.3 9.582 31.835 16.126 42.323 22.717l2.878 1.776c.139.093.232.327.139.467-.789 1.356-1.532 2.758-2.32 4.114l-1.068 1.916c-.046.093-.139.14-.232.187 0 .047 0 .047-.046.047z" transform="translate(41.555 8.13) translate(223.683 180.892)"/>
                <path d="M6.868 8.74C4.688 5.844 2.552 2.899.371 0 3.851.982 7.38 1.963 10.86 2.991c.14.748.325 1.543.464 2.29-.835.141-1.67.281-2.552.468.418.888.835 1.73 1.253 2.618-1.067.093-2.135.234-3.156.374zM38.24 26.736c-.047 0-.14 0-.186-.046-.186-.094-.232-.328-.14-.468l2.321-4.066c.093-.187.325-.234.464-.14.186.093.232.327.14.467l-2.32 4.066c0 .14-.14.187-.28.187z" transform="translate(41.555 8.13) translate(223.683 180.892)"/>
            </g>
        </g>
    </g>
</svg>
