<svg width="10" height="20" viewBox="0 0 10 20" fill="none" xmlns="http://www.w3.org/2000/svg">
<path d="M1 3C1 1.89543 1.89543 1 3 1H7C8.10457 1 9 1.89543 9 3V7C9 8.10457 8.10457 9 7 9H3C1.89543 9 1 8.10457 1 7V3Z" fill="#333333"/>
<path fill-rule="evenodd" clip-rule="evenodd" d="M3 0H7C8.65685 0 10 1.34315 10 3V7C10 8.65685 8.65685 10 7 10H3C1.34315 10 0 8.65685 0 7V3C0 1.34315 1.34315 0 3 0ZM3 1C1.89543 1 1 1.89543 1 3V7C1 8.10457 1.89543 9 3 9H7C8.10457 9 9 8.10457 9 7V3C9 1.89543 8.10457 1 7 1H3Z" fill="#333333"/>
<path fill-rule="evenodd" clip-rule="evenodd" d="M3 10H7C8.65685 10 10 11.3431 10 13V17C10 18.6569 8.65685 20 7 20H3C1.34315 20 0 18.6569 0 17V13C0 11.3431 1.34315 10 3 10ZM3 11C1.89543 11 1 11.8954 1 13V17C1 18.1046 1.89543 19 3 19H7C8.10457 19 9 18.1046 9 17V13C9 11.8954 8.10457 11 7 11H3Z" fill="#333333"/>
</svg>
