<svg width="32" height="64" viewBox="0 0 32 64" fill="none" xmlns="http://www.w3.org/2000/svg">
<path fill-rule="evenodd" clip-rule="evenodd" d="M13.6096 11.6877C13.4371 11.9033 13.472 12.2179 13.6877 12.3905L18.1996 16L13.6877 19.6096C13.472 19.7821 13.4371 20.0967 13.6096 20.3124C13.7821 20.528 14.0967 20.563 14.3123 20.3905L19.3123 16.3905C19.431 16.2956 19.5 16.1519 19.5 16C19.5 15.8481 19.431 15.7045 19.3123 15.6096L14.3123 11.6096C14.0967 11.4371 13.7821 11.472 13.6096 11.6877Z" fill="#2B90D9"/>
<path opacity="0.5" fill-rule="evenodd" clip-rule="evenodd" d="M13.6096 43.6877C13.4371 43.9033 13.472 44.2179 13.6877 44.3905L18.1996 48L13.6877 51.6096C13.472 51.7821 13.4371 52.0967 13.6096 52.3124C13.7821 52.528 14.0967 52.563 14.3123 52.3905L19.3123 48.3905C19.431 48.2956 19.5 48.1519 19.5 48C19.5 47.8481 19.431 47.7045 19.3123 47.6096L14.3123 43.6096C14.0967 43.4371 13.7821 43.472 13.6096 43.6877Z" fill="black" fill-opacity="0.5"/>
</svg>
