<svg width="18" height="18" viewBox="0 0 18 18" fill="none" xmlns="http://www.w3.org/2000/svg">
<path fill-rule="evenodd" clip-rule="evenodd" d="M16 2L15.4689 8.57117L10.0436 4.82563L11.6882 4.04546C11.1299 3.76519 10.5268 3.57351 9.90042 3.48134C8.61554 3.29227 7.30417 3.53245 6.16971 4.16465C5.03524 4.79683 4.14108 5.7857 3.6259 6.97786C3.11073 8.17003 3.00332 9.49888 3.32035 10.7583C3.63738 12.0177 4.36112 13.1374 5.37933 13.9435C6.39754 14.7497 7.65331 15.1974 8.95188 15.2171C10.2504 15.2369 11.5192 14.8276 12.5615 14.0527C12.8145 13.8646 13.1722 13.9172 13.3603 14.1703C13.5484 14.4233 13.4958 14.781 13.2428 14.9691C11.9988 15.8939 10.4844 16.3824 8.93452 16.3589C7.38462 16.3353 5.88579 15.801 4.67051 14.8388C3.45523 13.8766 2.59141 12.5402 2.21302 11.0371C1.83464 9.53386 1.96283 7.94782 2.57772 6.52491C3.19261 5.102 4.25983 3.92174 5.61387 3.16719C6.9679 2.41264 8.53308 2.12597 10.0667 2.35163C11.0992 2.50357 12.0786 2.88204 12.9377 3.45272L16 2Z" fill="white"/>
</svg>
