<svg width="17" height="42" viewBox="0 0 17 42" fill="none" xmlns="http://www.w3.org/2000/svg">
<path fill-rule="evenodd" clip-rule="evenodd" d="M6.3405 27.0599C7.20619 25.6467 9.39342 25.6467 10.2591 27.0599C10.5751 27.5758 11.2218 27.8319 11.8395 27.6859C13.4591 27.3031 14.9473 28.6374 14.5989 30.1601L14.5232 30.491C14.384 31.0998 14.6556 31.7282 15.209 32.0785C16.6634 32.999 16.6634 35.001 15.209 35.9215C14.6556 36.2718 14.384 36.9002 14.5232 37.509L14.5989 37.8399C14.9473 39.3626 13.4591 40.6969 11.8395 40.3141C11.2218 40.1681 10.5751 40.4242 10.2591 40.9401C9.39342 42.3533 7.20619 42.3533 6.3405 40.9401C6.02449 40.4242 5.37784 40.1681 4.76007 40.3141C3.14049 40.6969 1.65236 39.3626 2.00069 37.8399L2.07639 37.509C2.21566 36.9002 1.94403 36.2718 1.39066 35.9215C-0.0638128 35.001 -0.0638132 32.999 1.39066 32.0785C1.94403 31.7282 2.21566 31.0998 2.07639 30.491L2.00069 30.1601C1.65236 28.6374 3.14049 27.3031 4.76007 27.6859C5.37784 27.8319 6.02449 27.5758 6.3405 27.0599ZM9.53268 27.4462C8.988 26.5571 7.61161 26.5571 7.06693 27.4462C6.56462 28.2662 5.53672 28.6735 4.5544 28.4413C3.53568 28.2005 2.59964 29.0398 2.81874 29.9976L2.89445 30.3285C3.10482 31.2481 2.6946 32.1953 1.86065 32.7232C0.894767 33.3345 0.894767 34.6655 1.86065 35.2768C2.6946 35.8047 3.10482 36.7519 2.89445 37.6715L2.81874 38.0024C2.59964 38.9602 3.53568 39.7995 4.5544 39.5587C5.53672 39.3265 6.56462 39.7338 7.06693 40.5538C7.61161 41.4429 8.988 41.4429 9.53268 40.5538C10.035 39.7338 11.0629 39.3265 12.0452 39.5587C13.0639 39.7995 14 38.9602 13.7809 38.0024L13.7052 37.6715C13.4948 36.7519 13.905 35.8047 14.739 35.2768C15.7048 34.6655 15.7048 33.3345 14.739 32.7232C13.905 32.1953 13.4948 31.2481 13.7052 30.3285L13.7809 29.9976C14 29.0398 13.0639 28.2005 12.0452 28.4413C11.0629 28.6735 10.035 28.2662 9.53268 27.4462Z" fill="#2B90D9"/>
<path fill-rule="evenodd" clip-rule="evenodd" d="M8.45437 32.0516C7.37828 32.0516 6.50594 32.9239 6.50594 34C6.50594 35.0761 7.37828 35.9485 8.45437 35.9485C9.53046 35.9485 10.4028 35.0761 10.4028 34C10.4028 32.9239 9.53046 32.0516 8.45437 32.0516ZM5.72656 34C5.72656 32.4935 6.94784 31.2722 8.45437 31.2722C9.9609 31.2722 11.1822 32.4935 11.1822 34C11.1822 35.5065 9.9609 36.7278 8.45437 36.7278C6.94784 36.7278 5.72656 35.5065 5.72656 34Z" fill="#2B90D9"/>
<path fill-rule="evenodd" clip-rule="evenodd" d="M6.3405 1.0599C7.20619 -0.353299 9.39342 -0.353299 10.2591 1.0599C10.5751 1.57577 11.2218 1.83191 11.8395 1.68588C13.4591 1.30307 14.9473 2.63741 14.5989 4.16009L14.5232 4.49102C14.384 5.09979 14.6556 5.7282 15.209 6.07845C16.6634 6.99904 16.6634 9.00096 15.209 9.92155C14.6556 10.2718 14.384 10.9002 14.5232 11.509L14.5989 11.8399C14.9473 13.3626 13.4591 14.6969 11.8395 14.3141C11.2218 14.1681 10.5751 14.4242 10.2591 14.9401C9.39342 16.3533 7.20619 16.3533 6.3405 14.9401C6.02449 14.4242 5.37784 14.1681 4.76007 14.3141C3.14049 14.6969 1.65236 13.3626 2.00069 11.8399L2.07639 11.509C2.21566 10.9002 1.94403 10.2718 1.39066 9.92155C-0.0638128 9.00096 -0.0638132 6.99904 1.39066 6.07845C1.94403 5.7282 2.21566 5.09979 2.07639 4.49102L2.00069 4.16009C1.65236 2.63741 3.14049 1.30307 4.76007 1.68588C5.37784 1.83191 6.02449 1.57577 6.3405 1.0599ZM9.53268 1.44624C8.988 0.557083 7.61161 0.557083 7.06693 1.44624C6.56462 2.26624 5.53672 2.67352 4.5544 2.44133C3.53568 2.20054 2.59964 3.03984 2.81874 3.99761L2.89445 4.32854C3.10482 5.24815 2.6946 6.19531 1.86065 6.72315C0.894767 7.3345 0.894767 8.6655 1.86065 9.27685C2.6946 9.80469 3.10482 10.7519 2.89445 11.6715L2.81874 12.0024C2.59964 12.9602 3.53568 13.7995 4.5544 13.5587C5.53672 13.3265 6.56462 13.7338 7.06693 14.5538C7.61161 15.4429 8.988 15.4429 9.53268 14.5538C10.035 13.7338 11.0629 13.3265 12.0452 13.5587C13.0639 13.7995 14 12.9602 13.7809 12.0024L13.7052 11.6715C13.4948 10.7519 13.905 9.80469 14.739 9.27685C15.7048 8.6655 15.7048 7.3345 14.739 6.72315C13.905 6.19531 13.4948 5.24815 13.7052 4.32854L13.7809 3.99761C14 3.03984 13.0639 2.20054 12.0452 2.44133C11.0629 2.67352 10.035 2.26624 9.53268 1.44624Z" fill="white"/>
<path fill-rule="evenodd" clip-rule="evenodd" d="M8.45437 6.05159C7.37828 6.05159 6.50594 6.92393 6.50594 8.00002C6.50594 9.07611 7.37828 9.94846 8.45437 9.94846C9.53046 9.94846 10.4028 9.07611 10.4028 8.00002C10.4028 6.92393 9.53046 6.05159 8.45437 6.05159ZM5.72656 8.00002C5.72656 6.4935 6.94784 5.27222 8.45437 5.27222C9.9609 5.27222 11.1822 6.4935 11.1822 8.00002C11.1822 9.50655 9.9609 10.7278 8.45437 10.7278C6.94784 10.7278 5.72656 9.50655 5.72656 8.00002Z" fill="white"/>
</svg>
