<svg width="24" height="24" viewBox="0 0 24 24" fill="none" xmlns="http://www.w3.org/2000/svg">
<path d="M3 6C3 4.34315 4.34315 3 6 3H14C15.6569 3 17 4.34315 17 6V14C17 15.6569 15.6569 17 14 17H6C4.34315 17 3 15.6569 3 14V6Z" fill="white"/>
<path fill-rule="evenodd" clip-rule="evenodd" d="M14 4H6C4.89543 4 4 4.89543 4 6V14C4 15.1046 4.89543 16 6 16H14C15.1046 16 16 15.1046 16 14V6C16 4.89543 15.1046 4 14 4ZM6 3C4.34315 3 3 4.34315 3 6V14C3 15.6569 4.34315 17 6 17H14C15.6569 17 17 15.6569 17 14V6C17 4.34315 15.6569 3 14 3H6Z" fill="white"/>
<path fill-rule="evenodd" clip-rule="evenodd" d="M20 4.5C20.2761 4.5 20.5 4.72386 20.5 5V16C20.5 18.4853 18.4853 20.5 16 20.5H7C6.72386 20.5 6.5 20.2761 6.5 20C6.5 19.7239 6.72386 19.5 7 19.5H16C17.933 19.5 19.5 17.933 19.5 16V5C19.5 4.72386 19.7239 4.5 20 4.5Z" fill="white"/>
</svg>
