<svg width="42" height="17" viewBox="0 0 42 17" fill="none" xmlns="http://www.w3.org/2000/svg">
<path d="M0 1C0 0.447716 0.447715 0 1 0H6.11169C6.66398 0 7.11169 0.447715 7.11169 1V6.11169C7.11169 6.66398 6.66398 7.11169 6.11169 7.11169H1C0.447716 7.11169 0 6.66398 0 6.11169V1Z" fill="#2B90D9"/>
<path fill-rule="evenodd" clip-rule="evenodd" d="M15.0004 1H9.88867L9.88867 6.11169L15.0004 6.11169L15.0004 1ZM9.88867 0C9.33639 0 8.88867 0.447716 8.88867 1V6.11169C8.88867 6.66398 9.33639 7.11169 9.88867 7.11169H15.0004C15.5527 7.11169 16.0004 6.66398 16.0004 6.11169V1C16.0004 0.447715 15.5527 0 15.0004 0H9.88867Z" fill="#2B90D9"/>
<path fill-rule="evenodd" clip-rule="evenodd" d="M15.0004 9.88959H9.88867L9.88867 15.0013L15.0004 15.0013L15.0004 9.88959ZM9.88867 8.88959C9.33639 8.88959 8.88867 9.3373 8.88867 9.88959V15.0013C8.88867 15.5536 9.33639 16.0013 9.88867 16.0013H15.0004C15.5527 16.0013 16.0004 15.5536 16.0004 15.0013V9.88959C16.0004 9.3373 15.5527 8.88959 15.0004 8.88959H9.88867Z" fill="#2B90D9"/>
<path fill-rule="evenodd" clip-rule="evenodd" d="M6.11169 9.88959H1L1 15.0013L6.11169 15.0013L6.11169 9.88959ZM1 8.88959C0.447715 8.88959 0 9.3373 0 9.88959V15.0013C0 15.5536 0.447716 16.0013 1 16.0013H6.11169C6.66398 16.0013 7.11169 15.5536 7.11169 15.0013V9.88959C7.11169 9.3373 6.66398 8.88959 6.11169 8.88959H1Z" fill="#2B90D9"/>
<path d="M26 1C26 0.447716 26.4477 0 27 0H32.1117C32.664 0 33.1117 0.447715 33.1117 1V6.11169C33.1117 6.66398 32.664 7.11169 32.1117 7.11169H27C26.4477 7.11169 26 6.66398 26 6.11169V1Z" fill="white"/>
<path fill-rule="evenodd" clip-rule="evenodd" d="M41.0004 1H35.8887L35.8887 6.11169L41.0004 6.11169L41.0004 1ZM35.8887 0C35.3364 0 34.8887 0.447716 34.8887 1V6.11169C34.8887 6.66398 35.3364 7.11169 35.8887 7.11169H41.0004C41.5527 7.11169 42.0004 6.66398 42.0004 6.11169V1C42.0004 0.447715 41.5527 0 41.0004 0H35.8887Z" fill="white"/>
<path fill-rule="evenodd" clip-rule="evenodd" d="M41.0004 9.88959H35.8887L35.8887 15.0013L41.0004 15.0013L41.0004 9.88959ZM35.8887 8.88959C35.3364 8.88959 34.8887 9.3373 34.8887 9.88959V15.0013C34.8887 15.5536 35.3364 16.0013 35.8887 16.0013H41.0004C41.5527 16.0013 42.0004 15.5536 42.0004 15.0013V9.88959C42.0004 9.3373 41.5527 8.88959 41.0004 8.88959H35.8887Z" fill="white"/>
<path fill-rule="evenodd" clip-rule="evenodd" d="M32.1117 9.88959H27L27 15.0013L32.1117 15.0013L32.1117 9.88959ZM27 8.88959C26.4477 8.88959 26 9.3373 26 9.88959V15.0013C26 15.5536 26.4477 16.0013 27 16.0013H32.1117C32.664 16.0013 33.1117 15.5536 33.1117 15.0013V9.88959C33.1117 9.3373 32.664 8.88959 32.1117 8.88959H27Z" fill="white"/>
</svg>
