<svg width="22" height="20" viewBox="0 0 22 20" fill="none" xmlns="http://www.w3.org/2000/svg">
<path fill-rule="evenodd" clip-rule="evenodd" d="M17.6471 2.35286H3.52941C2.22992 2.35286 1.17647 3.40631 1.17647 4.7058V16.4705C1.17647 17.77 2.22992 18.8235 3.52941 18.8235H17.6471C18.9466 18.8235 20 17.77 20 16.4705V4.7058C20 3.40631 18.9466 2.35286 17.6471 2.35286ZM3.52941 1.17639C1.58017 1.17639 0 2.75656 0 4.7058V16.4705C0 18.4198 1.58017 19.9999 3.52941 19.9999H17.6471C19.5963 19.9999 21.1765 18.4198 21.1765 16.4705V4.7058C21.1765 2.75656 19.5963 1.17639 17.6471 1.17639H3.52941Z" fill="#2B90D9"/>
<path fill-rule="evenodd" clip-rule="evenodd" d="M4.1188 -2.5713e-08C4.44367 -1.15121e-08 4.70703 0.263362 4.70703 0.588235L4.70703 4.11765C4.70703 4.44252 4.44367 4.70588 4.1188 4.70588C3.79392 4.70588 3.53056 4.44252 3.53056 4.11765L3.53056 0.588235C3.53056 0.263362 3.79392 -3.99139e-08 4.1188 -2.5713e-08Z" fill="#2B90D9"/>
<path fill-rule="evenodd" clip-rule="evenodd" d="M17.0582 -2.5713e-08C17.3831 -1.15121e-08 17.6465 0.263362 17.6465 0.588235L17.6465 4.11765C17.6465 4.44252 17.3831 4.70588 17.0582 4.70588C16.7334 4.70588 16.47 4.44252 16.47 4.11765L16.47 0.588235C16.47 0.263362 16.7334 -3.99139e-08 17.0582 -2.5713e-08Z" fill="#2B90D9"/>
<path fill-rule="evenodd" clip-rule="evenodd" d="M7.64614 -2.5713e-08C7.97101 -1.15121e-08 8.23437 0.263362 8.23437 0.588235L8.23437 4.11765C8.23437 4.44252 7.97101 4.70588 7.64614 4.70588C7.32127 4.70588 7.0579 4.44252 7.0579 4.11765L7.0579 0.588235C7.0579 0.263362 7.32127 -3.99139e-08 7.64614 -2.5713e-08Z" fill="#2B90D9"/>
<path fill-rule="evenodd" clip-rule="evenodd" d="M13.5299 -2.5713e-08C13.8548 -1.15121e-08 14.1182 0.263362 14.1182 0.588235L14.1182 4.11765C14.1182 4.44252 13.8548 4.70588 13.5299 4.70588C13.2051 4.70588 12.9417 4.44252 12.9417 4.11765L12.9417 0.588235C12.9417 0.263362 13.2051 -3.99139e-08 13.5299 -2.5713e-08Z" fill="#2B90D9"/>
<path d="M8.5449 9.43041V15.4257H9.75901V16.4704H5.88137V15.4257H7.25549V11.5951L7.29313 10.9834L6.1449 12.0281L5.40137 11.181L7.43431 9.43041H8.5449Z" fill="#2B90D9"/>
<path d="M15.7233 12.9786C15.7233 13.5998 15.6574 14.1394 15.5256 14.5975C15.3939 15.0492 15.2088 15.4257 14.9703 15.7269C14.7382 16.0218 14.4621 16.2414 14.1421 16.3857C13.8221 16.53 13.4739 16.6022 13.0974 16.6022C12.7335 16.6022 12.3915 16.53 12.0715 16.3857C11.7578 16.2414 11.4817 16.0218 11.2433 15.7269C11.0111 15.4257 10.8292 15.0492 10.6974 14.5975C10.5656 14.1394 10.4997 13.5998 10.4997 12.9786C10.4997 12.3512 10.5656 11.8116 10.6974 11.3598C10.8292 10.9018 11.0111 10.5253 11.2433 10.2304C11.4817 9.92923 11.7578 9.70649 12.0715 9.56217C12.3915 9.41786 12.7335 9.3457 13.0974 9.3457C13.4739 9.3457 13.8221 9.41786 14.1421 9.56217C14.4621 9.70649 14.7382 9.92923 14.9703 10.2304C15.2088 10.5253 15.3939 10.9018 15.5256 11.3598C15.6574 11.8116 15.7233 12.3512 15.7233 12.9786ZM14.4056 12.9786C14.4056 12.4767 14.368 12.0626 14.2927 11.7363C14.2237 11.4037 14.1296 11.1433 14.0103 10.9551C13.8911 10.7606 13.7499 10.6257 13.5868 10.5504C13.4299 10.4688 13.2668 10.4281 13.0974 10.4281C12.9343 10.4281 12.7743 10.4688 12.6174 10.5504C12.4668 10.6257 12.3319 10.7606 12.2127 10.9551C12.0935 11.1433 11.9962 11.4037 11.9209 11.7363C11.8519 12.0626 11.8174 12.4767 11.8174 12.9786C11.8174 13.4743 11.8519 13.8853 11.9209 14.2116C11.9962 14.5379 12.0935 14.7983 12.2127 14.9928C12.3319 15.1873 12.4668 15.3222 12.6174 15.3975C12.7743 15.4728 12.9343 15.5104 13.0974 15.5104C13.2668 15.5104 13.4299 15.4728 13.5868 15.3975C13.7499 15.3222 13.8911 15.1873 14.0103 14.9928C14.1296 14.7983 14.2237 14.5379 14.2927 14.2116C14.368 13.8853 14.4056 13.4743 14.4056 12.9786Z" fill="#2B90D9"/>
<path fill-rule="evenodd" clip-rule="evenodd" d="M21.1765 8.23543H0V7.05896H21.1765V8.23543Z" fill="#2B90D9"/>
</svg>
