<svg width="12" height="12" viewBox="0 0 12 12" fill="none" xmlns="http://www.w3.org/2000/svg">
<path fill-rule="evenodd" clip-rule="evenodd" d="M6 11C8.76142 11 11 8.76142 11 6C11 3.23858 8.76142 1 6 1C3.23858 1 1 3.23858 1 6C1 8.76142 3.23858 11 6 11ZM6 12C9.31371 12 12 9.31371 12 6C12 2.68629 9.31371 0 6 0C2.68629 0 0 2.68629 0 6C0 9.31371 2.68629 12 6 12Z" fill="#2B90D9"/>
<path fill-rule="evenodd" clip-rule="evenodd" d="M5.7002 6.90001V2.70001H6.7002V6.90001H5.7002Z" fill="#2B90D9"/>
<path fill-rule="evenodd" clip-rule="evenodd" d="M8.7002 6.90002H5.7002V5.90002H8.7002V6.90002Z" fill="#2B90D9"/>
</svg>
