<svg width="42" height="16" viewBox="0 0 42 16" fill="none" xmlns="http://www.w3.org/2000/svg">
<mask id="mask0" mask-type="alpha" maskUnits="userSpaceOnUse" x="0" y="0" width="16" height="16">
<rect width="16" height="16" fill="#C4C4C4"/>
</mask>
<g mask="url(#mask0)">
<path d="M4.08 1.52V7.89H5.37V9H1.25V7.89H2.71V3.82L2.75 3.17L1.53 4.28L0.74 3.38L2.9 1.52H4.08ZM10.707 5.29C10.707 5.95 10.637 6.52333 10.497 7.01C10.357 7.49 10.1604 7.89 9.90703 8.21C9.66036 8.52333 9.36703 8.75667 9.02703 8.91C8.68703 9.06333 8.31703 9.14 7.91703 9.14C7.53036 9.14 7.16703 9.06333 6.82703 8.91C6.4937 8.75667 6.20036 8.52333 5.94703 8.21C5.70036 7.89 5.50703 7.49 5.36703 7.01C5.22703 6.52333 5.15703 5.95 5.15703 5.29C5.15703 4.62333 5.22703 4.05 5.36703 3.57C5.50703 3.08333 5.70036 2.68333 5.94703 2.37C6.20036 2.05 6.4937 1.81333 6.82703 1.66C7.16703 1.50667 7.53036 1.43 7.91703 1.43C8.31703 1.43 8.68703 1.50667 9.02703 1.66C9.36703 1.81333 9.66036 2.05 9.90703 2.37C10.1604 2.68333 10.357 3.08333 10.497 3.57C10.637 4.05 10.707 4.62333 10.707 5.29ZM9.30703 5.29C9.30703 4.75667 9.26703 4.31667 9.18703 3.97C9.1137 3.61667 9.0137 3.34 8.88703 3.14C8.76036 2.93333 8.61036 2.79 8.43703 2.71C8.27036 2.62333 8.09703 2.58 7.91703 2.58C7.7437 2.58 7.5737 2.62333 7.40703 2.71C7.24703 2.79 7.1037 2.93333 6.97703 3.14C6.85036 3.34 6.74703 3.61667 6.66703 3.97C6.5937 4.31667 6.55703 4.75667 6.55703 5.29C6.55703 5.81667 6.5937 6.25333 6.66703 6.6C6.74703 6.94667 6.85036 7.22333 6.97703 7.43C7.1037 7.63667 7.24703 7.78 7.40703 7.86C7.5737 7.94 7.7437 7.98 7.91703 7.98C8.09703 7.98 8.27036 7.94 8.43703 7.86C8.61036 7.78 8.76036 7.63667 8.88703 7.43C9.0137 7.22333 9.1137 6.94667 9.18703 6.6C9.26703 6.25333 9.30703 5.81667 9.30703 5.29Z" fill="#313542"/>
<path d="M4.08 1.52H5.08V0.52H4.08V1.52ZM4.08 7.89H3.08V8.89H4.08V7.89ZM5.37 7.89H6.37V6.89H5.37V7.89ZM5.37 9V10H6.37V9H5.37ZM1.25 9H0.25V10H1.25V9ZM1.25 7.89V6.89H0.25V7.89H1.25ZM2.71 7.89V8.89H3.71V7.89H2.71ZM2.71 3.82L1.71189 3.75858L1.71 3.78926V3.82H2.71ZM2.75 3.17L3.74811 3.23142L3.89945 0.772231L2.07703 2.43033L2.75 3.17ZM1.53 4.28L0.778459 4.93969L1.45001 5.70474L2.20297 5.01967L1.53 4.28ZM0.74 3.38L0.0874769 2.62223L-0.677519 3.28098L-0.0115412 4.03969L0.74 3.38ZM2.9 1.52V0.52H2.52878L2.24748 0.762231L2.9 1.52ZM3.08 1.52V7.89H5.08V1.52H3.08ZM4.08 8.89H5.37V6.89H4.08V8.89ZM4.37 7.89V9H6.37V7.89H4.37ZM5.37 8H1.25V10H5.37V8ZM2.25 9V7.89H0.25V9H2.25ZM1.25 8.89H2.71V6.89H1.25V8.89ZM3.71 7.89V3.82H1.71V7.89H3.71ZM3.70811 3.88142L3.74811 3.23142L1.75189 3.10858L1.71189 3.75858L3.70811 3.88142ZM2.07703 2.43033L0.857026 3.54033L2.20297 5.01967L3.42297 3.90967L2.07703 2.43033ZM2.28154 3.62031L1.49154 2.72031L-0.0115412 4.03969L0.778459 4.93969L2.28154 3.62031ZM1.39252 4.13777L3.55252 2.27777L2.24748 0.762231L0.0874769 2.62223L1.39252 4.13777ZM2.9 2.52H4.08V0.52H2.9V2.52ZM10.497 7.01L11.457 7.29L11.4581 7.28646L10.497 7.01ZM9.90703 8.21L9.12298 7.58929L9.12129 7.59144L9.90703 8.21ZM9.02703 8.91L8.61592 7.99841L8.61592 7.99841L9.02703 8.91ZM6.82703 8.91L6.40911 9.81852L6.41592 9.82159L6.82703 8.91ZM5.94703 8.21L5.15502 8.82051L5.16211 8.8297L5.1694 8.83872L5.94703 8.21ZM5.36703 7.01L4.406 7.28646L4.40703 7.29L5.36703 7.01ZM5.36703 3.57L6.32704 3.85L6.32806 3.84646L5.36703 3.57ZM5.94703 2.37L5.16298 1.74929L5.16129 1.75144L5.94703 2.37ZM6.82703 1.66L6.41591 0.748388L6.40913 0.751509L6.82703 1.66ZM9.02703 1.66L8.61592 2.57159L8.61592 2.57159L9.02703 1.66ZM9.90703 2.37L9.11502 2.98051L9.12211 2.9897L9.1294 2.99872L9.90703 2.37ZM10.497 3.57L9.536 3.84646L9.53703 3.85L10.497 3.57ZM9.18703 3.97L8.2079 4.17322L8.21015 4.18406L8.21264 4.19486L9.18703 3.97ZM8.88703 3.14L8.03443 3.66256L8.03828 3.66884L8.04221 3.67505L8.88703 3.14ZM8.43703 2.71L7.97568 3.59722L7.99658 3.60809L8.01797 3.61796L8.43703 2.71ZM7.40703 2.71L7.85424 3.60443L7.86134 3.60088L7.86838 3.59722L7.40703 2.71ZM6.97703 3.14L7.82185 3.67505L7.82579 3.66884L7.82963 3.66256L6.97703 3.14ZM6.66703 3.97L5.69172 3.74917L5.69015 3.7561L5.68868 3.76304L6.66703 3.97ZM6.66703 6.6L5.68868 6.80696L5.69058 6.81593L5.69264 6.82486L6.66703 6.6ZM6.97703 7.43L6.12443 7.95256L6.12443 7.95256L6.97703 7.43ZM7.40703 7.86L6.95982 8.75443L6.96703 8.75803L6.9743 8.76152L7.40703 7.86ZM8.43703 7.86L8.01797 6.95204L8.01111 6.95521L8.0043 6.95848L8.43703 7.86ZM8.88703 7.43L8.03443 6.90744L8.03443 6.90744L8.88703 7.43ZM9.18703 6.6L8.21264 6.37514L8.21058 6.38407L8.20868 6.39304L9.18703 6.6ZM9.70703 5.29C9.70703 5.88312 9.6437 6.35919 9.53601 6.73354L11.4581 7.28646C11.6304 6.68748 11.707 6.01688 11.707 5.29H9.70703ZM9.53703 6.73C9.42526 7.11321 9.28042 7.39043 9.12299 7.5893L10.6911 8.8307C11.0403 8.38957 11.2888 7.86679 11.457 7.29L9.53703 6.73ZM9.12129 7.59144C8.96705 7.78737 8.79923 7.91575 8.61592 7.99841L9.43814 9.82159C9.93484 9.59759 10.3537 9.2593 10.6928 8.82856L9.12129 7.59144ZM8.61592 7.99841C8.41433 8.08933 8.18571 8.14 7.91703 8.14V10.14C8.44835 10.14 8.95973 10.0373 9.43814 9.82159L8.61592 7.99841ZM7.91703 8.14C7.66678 8.14 7.44414 8.09132 7.23814 7.99841L6.41592 9.82159C6.88992 10.0353 7.39394 10.14 7.91703 10.14V8.14ZM7.24494 8.00151C7.06475 7.91862 6.89086 7.78684 6.72466 7.58128L5.1694 8.83872C5.50986 9.25982 5.92265 9.59471 6.40913 9.81849L7.24494 8.00151ZM6.73904 7.59949C6.58419 7.3986 6.44014 7.11779 6.32703 6.73L4.40703 7.29C4.57393 7.86221 4.81654 8.3814 5.15502 8.82051L6.73904 7.59949ZM6.32806 6.73354C6.22037 6.35919 6.15703 5.88312 6.15703 5.29H4.15703C4.15703 6.01688 4.2337 6.68748 4.40601 7.28646L6.32806 6.73354ZM6.15703 5.29C6.15703 4.68865 6.22071 4.21454 6.32703 3.85L4.40703 3.29C4.23335 3.88546 4.15703 4.55802 4.15703 5.29H6.15703ZM6.32806 3.84646C6.44156 3.45188 6.58451 3.17689 6.73277 2.98856L5.16129 1.75144C4.81622 2.18977 4.5725 2.71478 4.40601 3.29354L6.32806 3.84646ZM6.73108 2.9907C6.89784 2.78006 7.07004 2.64894 7.24494 2.56849L6.40913 0.751509C5.91736 0.977723 5.50289 1.31994 5.16299 1.7493L6.73108 2.9907ZM7.23814 2.57159C7.44414 2.47868 7.66678 2.43 7.91703 2.43V0.43C7.39394 0.43 6.88992 0.53465 6.41592 0.748413L7.23814 2.57159ZM7.91703 2.43C8.18571 2.43 8.41433 2.48067 8.61592 2.57159L9.43814 0.748413C8.95973 0.532662 8.44835 0.43 7.91703 0.43V2.43ZM8.61592 2.57159C8.79387 2.65184 8.9601 2.77953 9.11502 2.98051L10.699 1.75949C10.3606 1.32047 9.94019 0.97483 9.43814 0.748413L8.61592 2.57159ZM9.1294 2.99872C9.28008 3.18508 9.42381 3.45645 9.53601 3.84646L11.4581 3.29354C11.2903 2.71022 11.0407 2.18158 10.6847 1.74128L9.1294 2.99872ZM9.53703 3.85C9.64335 4.21454 9.70703 4.68865 9.70703 5.29H11.707C11.707 4.55802 11.6307 3.88546 11.457 3.29L9.53703 3.85ZM10.307 5.29C10.307 4.71454 10.2646 4.19231 10.1614 3.74514L8.21264 4.19486C8.26945 4.44102 8.30703 4.79879 8.30703 5.29H10.307ZM10.1662 3.76678C10.0799 3.35097 9.94742 2.94533 9.73185 2.60495L8.04221 3.67505C8.07997 3.73467 8.14753 3.88236 8.2079 4.17322L10.1662 3.76678ZM9.73963 2.61744C9.53746 2.28758 9.25167 1.98461 8.85609 1.80204L8.01797 3.61796C7.99613 3.60788 7.98653 3.59845 7.98867 3.60049C7.99193 3.6036 8.00879 3.62073 8.03443 3.66256L9.73963 2.61744ZM8.89838 1.82278C8.59565 1.66536 8.26473 1.58 7.91703 1.58V3.58C7.92933 3.58 7.94508 3.58131 7.97568 3.59722L8.89838 1.82278ZM7.91703 1.58C7.56987 1.58 7.24263 1.66837 6.94568 1.82278L7.86838 3.59722C7.88842 3.5868 7.90093 3.58294 7.90654 3.58151C7.9118 3.58017 7.91468 3.58 7.91703 3.58V1.58ZM6.95982 1.81557C6.58316 2.0039 6.31522 2.30614 6.12443 2.61744L7.82963 3.66256C7.85962 3.61363 7.88012 3.59112 7.88664 3.58461C7.89228 3.57897 7.88223 3.59043 7.85424 3.60443L6.95982 1.81557ZM6.13221 2.60495C5.92098 2.93847 5.78501 3.33713 5.69172 3.74917L7.64234 4.19083C7.70905 3.89621 7.77975 3.74153 7.82185 3.67505L6.13221 2.60495ZM5.68868 3.76304C5.59569 4.20263 5.55703 4.71824 5.55703 5.29H7.55703C7.55703 4.79509 7.5917 4.43071 7.64538 4.17696L5.68868 3.76304ZM5.55703 5.29C5.55703 5.85611 5.59583 6.36804 5.68868 6.80696L7.64538 6.39304C7.59156 6.13863 7.55703 5.77722 7.55703 5.29H5.55703ZM5.69264 6.82486C5.78664 7.23219 5.92164 7.62169 6.12443 7.95256L7.82963 6.90744C7.77909 6.82497 7.70742 6.66114 7.64142 6.37514L5.69264 6.82486ZM6.12443 7.95256C6.31522 8.26386 6.58316 8.5661 6.95982 8.75443L7.85424 6.96557C7.88224 6.97957 7.89228 6.99103 7.88664 6.98539C7.88012 6.97888 7.85962 6.95637 7.82963 6.90744L6.12443 7.95256ZM6.9743 8.76152C7.26683 8.90194 7.58404 8.98 7.91703 8.98V6.98C7.90336 6.98 7.88056 6.97806 7.83976 6.95848L6.9743 8.76152ZM7.91703 8.98C8.25096 8.98 8.57182 8.90454 8.86976 8.76152L8.0043 6.95848C7.96891 6.97546 7.9431 6.98 7.91703 6.98V8.98ZM8.85609 8.76796C9.25167 8.58539 9.53746 8.28242 9.73963 7.95256L8.03443 6.90744C8.00879 6.94927 7.99193 6.9664 7.98867 6.96951C7.98653 6.97155 7.99613 6.96212 8.01797 6.95204L8.85609 8.76796ZM9.73963 7.95256C9.94662 7.61485 10.0783 7.21844 10.1654 6.80696L8.20868 6.39304C8.14906 6.6749 8.08078 6.83182 8.03443 6.90744L9.73963 7.95256ZM10.1614 6.82486C10.2644 6.37841 10.307 5.85989 10.307 5.29H8.30703C8.30703 5.77344 8.26961 6.12826 8.21264 6.37514L10.1614 6.82486Z" fill="#2B90D9"/>
<path d="M9.08 7.52V13.89H10.37V15H6.25V13.89H7.71V9.82L7.75 9.17L6.53 10.28L5.74 9.38L7.9 7.52H9.08ZM15.227 8.75H12.417L12.167 10.21C12.3204 10.1833 12.467 10.1667 12.607 10.16C12.7537 10.1467 12.8937 10.14 13.027 10.14C13.427 10.14 13.7804 10.2 14.087 10.32C14.3937 10.44 14.6504 10.6067 14.857 10.82C15.0637 11.0267 15.2204 11.2733 15.327 11.56C15.4337 11.84 15.487 12.1467 15.487 12.48C15.487 12.88 15.4137 13.2467 15.267 13.58C15.127 13.9133 14.9304 14.2 14.677 14.44C14.4237 14.6733 14.1237 14.8567 13.777 14.99C13.4304 15.1167 13.057 15.18 12.657 15.18C12.197 15.18 11.7704 15.09 11.377 14.91C10.9837 14.73 10.6604 14.52 10.407 14.28L11.107 13.26C11.3404 13.4533 11.5904 13.6233 11.857 13.77C12.1237 13.9167 12.417 13.99 12.737 13.99C13.197 13.99 13.547 13.86 13.787 13.6C14.027 13.3333 14.147 12.98 14.147 12.54C14.147 12.14 14.0304 11.8267 13.797 11.6C13.5637 11.3733 13.217 11.2667 12.757 11.28C12.5704 11.2933 12.387 11.32 12.207 11.36C12.027 11.3933 11.847 11.4433 11.667 11.51L10.827 11.26C10.9804 10.2933 11.107 9.51 11.207 8.91C11.3137 8.30333 11.3937 7.84 11.447 7.52H15.227V8.75Z" fill="#2B90D9"/>
</g>
<mask id="mask1" mask-type="alpha" maskUnits="userSpaceOnUse" x="26" y="0" width="16" height="16">
<rect x="26" width="16" height="16" fill="#C4C4C4"/>
</mask>
<g mask="url(#mask1)">
<path d="M30.08 1.52V7.89H31.37V9H27.25V7.89H28.71V3.82L28.75 3.17L27.53 4.28L26.74 3.38L28.9 1.52H30.08ZM36.707 5.29C36.707 5.95 36.637 6.52333 36.497 7.01C36.357 7.49 36.1604 7.89 35.907 8.21C35.6604 8.52333 35.367 8.75667 35.027 8.91C34.687 9.06333 34.317 9.14 33.917 9.14C33.5304 9.14 33.167 9.06333 32.827 8.91C32.4937 8.75667 32.2004 8.52333 31.947 8.21C31.7004 7.89 31.507 7.49 31.367 7.01C31.227 6.52333 31.157 5.95 31.157 5.29C31.157 4.62333 31.227 4.05 31.367 3.57C31.507 3.08333 31.7004 2.68333 31.947 2.37C32.2004 2.05 32.4937 1.81333 32.827 1.66C33.167 1.50667 33.5304 1.43 33.917 1.43C34.317 1.43 34.687 1.50667 35.027 1.66C35.367 1.81333 35.6604 2.05 35.907 2.37C36.1604 2.68333 36.357 3.08333 36.497 3.57C36.637 4.05 36.707 4.62333 36.707 5.29ZM35.307 5.29C35.307 4.75667 35.267 4.31667 35.187 3.97C35.1137 3.61667 35.0137 3.34 34.887 3.14C34.7604 2.93333 34.6104 2.79 34.437 2.71C34.2704 2.62333 34.097 2.58 33.917 2.58C33.7437 2.58 33.5737 2.62333 33.407 2.71C33.247 2.79 33.1037 2.93333 32.977 3.14C32.8504 3.34 32.747 3.61667 32.667 3.97C32.5937 4.31667 32.557 4.75667 32.557 5.29C32.557 5.81667 32.5937 6.25333 32.667 6.6C32.747 6.94667 32.8504 7.22333 32.977 7.43C33.1037 7.63667 33.247 7.78 33.407 7.86C33.5737 7.94 33.7437 7.98 33.917 7.98C34.097 7.98 34.2704 7.94 34.437 7.86C34.6104 7.78 34.7604 7.63667 34.887 7.43C35.0137 7.22333 35.1137 6.94667 35.187 6.6C35.267 6.25333 35.307 5.81667 35.307 5.29Z" fill="#313542"/>
<path d="M30.08 1.52H31.08V0.52H30.08V1.52ZM30.08 7.89H29.08V8.89H30.08V7.89ZM31.37 7.89H32.37V6.89H31.37V7.89ZM31.37 9V10H32.37V9H31.37ZM27.25 9H26.25V10H27.25V9ZM27.25 7.89V6.89H26.25V7.89H27.25ZM28.71 7.89V8.89H29.71V7.89H28.71ZM28.71 3.82L27.7119 3.75858L27.71 3.78926V3.82H28.71ZM28.75 3.17L29.7481 3.23142L29.8994 0.772231L28.077 2.43033L28.75 3.17ZM27.53 4.28L26.7785 4.93969L27.45 5.70474L28.203 5.01967L27.53 4.28ZM26.74 3.38L26.0875 2.62223L25.3225 3.28098L25.9885 4.03969L26.74 3.38ZM28.9 1.52V0.52H28.5288L28.2475 0.762231L28.9 1.52ZM29.08 1.52V7.89H31.08V1.52H29.08ZM30.08 8.89H31.37V6.89H30.08V8.89ZM30.37 7.89V9H32.37V7.89H30.37ZM31.37 8H27.25V10H31.37V8ZM28.25 9V7.89H26.25V9H28.25ZM27.25 8.89H28.71V6.89H27.25V8.89ZM29.71 7.89V3.82H27.71V7.89H29.71ZM29.7081 3.88142L29.7481 3.23142L27.7519 3.10858L27.7119 3.75858L29.7081 3.88142ZM28.077 2.43033L26.857 3.54033L28.203 5.01967L29.423 3.90967L28.077 2.43033ZM28.2815 3.62031L27.4915 2.72031L25.9885 4.03969L26.7785 4.93969L28.2815 3.62031ZM27.3925 4.13777L29.5525 2.27777L28.2475 0.762231L26.0875 2.62223L27.3925 4.13777ZM28.9 2.52H30.08V0.52H28.9V2.52ZM36.497 7.01L37.457 7.29L37.4581 7.28646L36.497 7.01ZM35.907 8.21L35.123 7.58929L35.1213 7.59144L35.907 8.21ZM35.027 8.91L34.6159 7.99841L34.6159 7.99841L35.027 8.91ZM32.827 8.91L32.4091 9.81852L32.4159 9.82159L32.827 8.91ZM31.947 8.21L31.155 8.82051L31.1621 8.8297L31.1694 8.83872L31.947 8.21ZM31.367 7.01L30.406 7.28646L30.407 7.29L31.367 7.01ZM31.367 3.57L32.327 3.85L32.3281 3.84646L31.367 3.57ZM31.947 2.37L31.163 1.74929L31.1613 1.75144L31.947 2.37ZM32.827 1.66L32.4159 0.748388L32.4091 0.751509L32.827 1.66ZM35.027 1.66L34.6159 2.57159L34.6159 2.57159L35.027 1.66ZM35.907 2.37L35.115 2.98051L35.1221 2.9897L35.1294 2.99872L35.907 2.37ZM36.497 3.57L35.536 3.84646L35.537 3.85L36.497 3.57ZM35.187 3.97L34.2079 4.17322L34.2101 4.18406L34.2126 4.19486L35.187 3.97ZM34.887 3.14L34.0344 3.66256L34.0383 3.66884L34.0422 3.67505L34.887 3.14ZM34.437 2.71L33.9757 3.59722L33.9966 3.60809L34.018 3.61796L34.437 2.71ZM33.407 2.71L33.8542 3.60443L33.8613 3.60088L33.8684 3.59722L33.407 2.71ZM32.977 3.14L33.8219 3.67505L33.8258 3.66884L33.8296 3.66256L32.977 3.14ZM32.667 3.97L31.6917 3.74917L31.6902 3.7561L31.6887 3.76304L32.667 3.97ZM32.667 6.6L31.6887 6.80696L31.6906 6.81593L31.6926 6.82486L32.667 6.6ZM32.977 7.43L32.1244 7.95256L32.1244 7.95256L32.977 7.43ZM33.407 7.86L32.9598 8.75443L32.967 8.75803L32.9743 8.76152L33.407 7.86ZM34.437 7.86L34.018 6.95204L34.0111 6.95521L34.0043 6.95848L34.437 7.86ZM34.887 7.43L34.0344 6.90744L34.0344 6.90744L34.887 7.43ZM35.187 6.6L34.2126 6.37514L34.2106 6.38407L34.2087 6.39304L35.187 6.6ZM35.707 5.29C35.707 5.88312 35.6437 6.35919 35.536 6.73354L37.4581 7.28646C37.6304 6.68748 37.707 6.01688 37.707 5.29H35.707ZM35.537 6.73C35.4253 7.11321 35.2804 7.39043 35.123 7.5893L36.6911 8.8307C37.0403 8.38957 37.2888 7.86679 37.457 7.29L35.537 6.73ZM35.1213 7.59144C34.9671 7.78737 34.7992 7.91575 34.6159 7.99841L35.4381 9.82159C35.9348 9.59759 36.3537 9.2593 36.6928 8.82856L35.1213 7.59144ZM34.6159 7.99841C34.4143 8.08933 34.1857 8.14 33.917 8.14V10.14C34.4484 10.14 34.9597 10.0373 35.4381 9.82159L34.6159 7.99841ZM33.917 8.14C33.6668 8.14 33.4441 8.09132 33.2381 7.99841L32.4159 9.82159C32.8899 10.0353 33.3939 10.14 33.917 10.14V8.14ZM33.2449 8.00151C33.0647 7.91862 32.8909 7.78684 32.7247 7.58128L31.1694 8.83872C31.5099 9.25982 31.9226 9.59471 32.4091 9.81849L33.2449 8.00151ZM32.739 7.59949C32.5842 7.3986 32.4401 7.11779 32.327 6.73L30.407 7.29C30.5739 7.86221 30.8165 8.3814 31.155 8.82051L32.739 7.59949ZM32.3281 6.73354C32.2204 6.35919 32.157 5.88312 32.157 5.29H30.157C30.157 6.01688 30.2337 6.68748 30.406 7.28646L32.3281 6.73354ZM32.157 5.29C32.157 4.68865 32.2207 4.21454 32.327 3.85L30.407 3.29C30.2334 3.88546 30.157 4.55802 30.157 5.29H32.157ZM32.3281 3.84646C32.4416 3.45188 32.5845 3.17689 32.7328 2.98856L31.1613 1.75144C30.8162 2.18977 30.5725 2.71478 30.406 3.29354L32.3281 3.84646ZM32.7311 2.9907C32.8978 2.78006 33.07 2.64894 33.2449 2.56849L32.4091 0.751509C31.9174 0.977723 31.5029 1.31994 31.163 1.7493L32.7311 2.9907ZM33.2381 2.57159C33.4441 2.47868 33.6668 2.43 33.917 2.43V0.43C33.3939 0.43 32.8899 0.53465 32.4159 0.748413L33.2381 2.57159ZM33.917 2.43C34.1857 2.43 34.4143 2.48067 34.6159 2.57159L35.4381 0.748413C34.9597 0.532662 34.4484 0.43 33.917 0.43V2.43ZM34.6159 2.57159C34.7939 2.65184 34.9601 2.77953 35.115 2.98051L36.699 1.75949C36.3606 1.32047 35.9402 0.97483 35.4381 0.748413L34.6159 2.57159ZM35.1294 2.99872C35.2801 3.18508 35.4238 3.45645 35.536 3.84646L37.4581 3.29354C37.2903 2.71022 37.0407 2.18158 36.6847 1.74128L35.1294 2.99872ZM35.537 3.85C35.6434 4.21454 35.707 4.68865 35.707 5.29H37.707C37.707 4.55802 37.6307 3.88546 37.457 3.29L35.537 3.85ZM36.307 5.29C36.307 4.71454 36.2646 4.19231 36.1614 3.74514L34.2126 4.19486C34.2694 4.44102 34.307 4.79879 34.307 5.29H36.307ZM36.1662 3.76678C36.0799 3.35097 35.9474 2.94533 35.7318 2.60495L34.0422 3.67505C34.08 3.73467 34.1475 3.88236 34.2079 4.17322L36.1662 3.76678ZM35.7396 2.61744C35.5375 2.28758 35.2517 1.98461 34.8561 1.80204L34.018 3.61796C33.9961 3.60788 33.9865 3.59845 33.9887 3.60049C33.9919 3.6036 34.0088 3.62073 34.0344 3.66256L35.7396 2.61744ZM34.8984 1.82278C34.5956 1.66536 34.2647 1.58 33.917 1.58V3.58C33.9293 3.58 33.9451 3.58131 33.9757 3.59722L34.8984 1.82278ZM33.917 1.58C33.5699 1.58 33.2426 1.66837 32.9457 1.82278L33.8684 3.59722C33.8884 3.5868 33.9009 3.58294 33.9065 3.58151C33.9118 3.58017 33.9147 3.58 33.917 3.58V1.58ZM32.9598 1.81557C32.5832 2.0039 32.3152 2.30614 32.1244 2.61744L33.8296 3.66256C33.8596 3.61363 33.8801 3.59112 33.8866 3.58461C33.8923 3.57897 33.8822 3.59043 33.8542 3.60443L32.9598 1.81557ZM32.1322 2.60495C31.921 2.93847 31.785 3.33713 31.6917 3.74917L33.6423 4.19083C33.7091 3.89621 33.7797 3.74153 33.8219 3.67505L32.1322 2.60495ZM31.6887 3.76304C31.5957 4.20263 31.557 4.71824 31.557 5.29H33.557C33.557 4.79509 33.5917 4.43071 33.6454 4.17696L31.6887 3.76304ZM31.557 5.29C31.557 5.85611 31.5958 6.36804 31.6887 6.80696L33.6454 6.39304C33.5916 6.13863 33.557 5.77722 33.557 5.29H31.557ZM31.6926 6.82486C31.7866 7.23219 31.9216 7.62169 32.1244 7.95256L33.8296 6.90744C33.7791 6.82497 33.7074 6.66114 33.6414 6.37514L31.6926 6.82486ZM32.1244 7.95256C32.3152 8.26386 32.5832 8.5661 32.9598 8.75443L33.8542 6.96557C33.8822 6.97957 33.8923 6.99103 33.8866 6.98539C33.8801 6.97888 33.8596 6.95637 33.8296 6.90744L32.1244 7.95256ZM32.9743 8.76152C33.2668 8.90194 33.584 8.98 33.917 8.98V6.98C33.9034 6.98 33.8806 6.97806 33.8398 6.95848L32.9743 8.76152ZM33.917 8.98C34.251 8.98 34.5718 8.90454 34.8698 8.76152L34.0043 6.95848C33.9689 6.97546 33.9431 6.98 33.917 6.98V8.98ZM34.8561 8.76796C35.2517 8.58539 35.5375 8.28242 35.7396 7.95256L34.0344 6.90744C34.0088 6.94927 33.9919 6.9664 33.9887 6.96951C33.9865 6.97155 33.9961 6.96212 34.018 6.95204L34.8561 8.76796ZM35.7396 7.95256C35.9466 7.61485 36.0783 7.21844 36.1654 6.80696L34.2087 6.39304C34.1491 6.6749 34.0808 6.83182 34.0344 6.90744L35.7396 7.95256ZM36.1614 6.82486C36.2644 6.37841 36.307 5.85989 36.307 5.29H34.307C34.307 5.77344 34.2696 6.12826 34.2126 6.37514L36.1614 6.82486Z" fill="white"/>
<path d="M35.08 7.52V13.89H36.37V15H32.25V13.89H33.71V9.82L33.75 9.17L32.53 10.28L31.74 9.38L33.9 7.52H35.08ZM41.227 8.75H38.417L38.167 10.21C38.3204 10.1833 38.467 10.1667 38.607 10.16C38.7537 10.1467 38.8937 10.14 39.027 10.14C39.427 10.14 39.7804 10.2 40.087 10.32C40.3937 10.44 40.6504 10.6067 40.857 10.82C41.0637 11.0267 41.2204 11.2733 41.327 11.56C41.4337 11.84 41.487 12.1467 41.487 12.48C41.487 12.88 41.4137 13.2467 41.267 13.58C41.127 13.9133 40.9304 14.2 40.677 14.44C40.4237 14.6733 40.1237 14.8567 39.777 14.99C39.4304 15.1167 39.057 15.18 38.657 15.18C38.197 15.18 37.7704 15.09 37.377 14.91C36.9837 14.73 36.6604 14.52 36.407 14.28L37.107 13.26C37.3404 13.4533 37.5904 13.6233 37.857 13.77C38.1237 13.9167 38.417 13.99 38.737 13.99C39.197 13.99 39.547 13.86 39.787 13.6C40.027 13.3333 40.147 12.98 40.147 12.54C40.147 12.14 40.0304 11.8267 39.797 11.6C39.5637 11.3733 39.217 11.2667 38.757 11.28C38.5704 11.2933 38.387 11.32 38.207 11.36C38.027 11.3933 37.847 11.4433 37.667 11.51L36.827 11.26C36.9804 10.2933 37.107 9.51 37.207 8.91C37.3137 8.30333 37.3937 7.84 37.447 7.52H41.227V8.75Z" fill="white"/>
</g>
</svg>
