<svg width="10" height="10" viewBox="0 0 10 10" fill="none" xmlns="http://www.w3.org/2000/svg">
<path fill-rule="evenodd" clip-rule="evenodd" d="M0.411509 0.90376C0.683284 0.85265 0.943258 1.0414 0.992177 1.32534L2.23716 8.55161C2.31182 8.58711 2.42042 8.63171 2.5707 8.67824C2.99599 8.80989 3.7498 8.95522 5.00009 8.95522C6.25037 8.95522 7.00418 8.80989 7.42947 8.67824C7.57975 8.63171 7.68835 8.58711 7.76301 8.55161L9.00799 1.32534C9.05691 1.0414 9.31689 0.85265 9.58866 0.90376C9.86044 0.95487 10.0411 1.22649 9.99218 1.51043L8.70646 8.97314C8.68661 9.08835 8.6303 9.19326 8.54655 9.27103L8.21437 8.88059C8.54655 9.27103 8.54655 9.27103 8.54655 9.27103L8.54507 9.2724L8.54353 9.27382L8.54025 9.27679L8.53292 9.28328C8.52769 9.28785 8.52176 9.29288 8.51509 9.29834C8.50176 9.30927 8.48552 9.32189 8.46607 9.33594C8.42715 9.36405 8.37557 9.39774 8.30904 9.43481C8.17598 9.50895 7.98361 9.59637 7.71356 9.67997C7.17456 9.84682 6.32123 10 5.00009 10C3.67894 10 2.82561 9.84682 2.28661 9.67997C2.01656 9.59637 1.82419 9.50895 1.69113 9.43481C1.6246 9.39774 1.57302 9.36405 1.5341 9.33594C1.51466 9.32189 1.49841 9.30927 1.48508 9.29834C1.47841 9.29288 1.47248 9.28785 1.46725 9.28328L1.45992 9.27679L1.45664 9.27382L1.4551 9.2724C1.4551 9.2724 1.45362 9.27103 1.7858 8.88059L1.45362 9.27103C1.36987 9.19326 1.31356 9.08835 1.29371 8.97314L0.00799401 1.51043C-0.0409254 1.22649 0.139734 0.95487 0.411509 0.90376Z" fill="#333333"/>
<path fill-rule="evenodd" clip-rule="evenodd" d="M3.34098 4.35445C3.52444 4.13882 3.84048 4.11939 4.04687 4.31107L5.0004 5.1966L5.95393 4.31107C6.16032 4.11939 6.47636 4.13882 6.65982 4.35445C6.84328 4.57008 6.82469 4.90027 6.6183 5.09194L5.753 5.89554L6.6183 6.69913C6.82469 6.89081 6.84328 7.22099 6.65982 7.43663C6.47636 7.65226 6.16032 7.67168 5.95393 7.48001L5.0004 6.59447L4.04687 7.48001C3.84048 7.67168 3.52444 7.65226 3.34098 7.43663C3.15752 7.22099 3.17611 6.89081 3.3825 6.69913L4.2478 5.89554L3.3825 5.09194C3.17611 4.90027 3.15752 4.57008 3.34098 4.35445Z" fill="#333333"/>
<path fill-rule="evenodd" clip-rule="evenodd" d="M1.41142 1.41791C1.55219 1.45908 1.71908 1.49966 1.91166 1.53798C2.68679 1.69224 3.77898 1.79105 5.00009 1.79105C6.22119 1.79105 7.31338 1.69224 8.08851 1.53798C8.28109 1.49966 8.44797 1.45908 8.58874 1.41791C8.44797 1.37675 8.28109 1.33617 8.08851 1.29785C7.31338 1.14359 6.22119 1.04478 5.00009 1.04478C3.77898 1.04478 2.68679 1.14359 1.91166 1.29785C1.71908 1.33617 1.55219 1.37675 1.41142 1.41791ZM1.72455 0.271519C2.5781 0.101659 3.73591 0 5.00009 0C6.26427 0 7.42207 0.101659 8.27562 0.271519C8.69828 0.355631 9.07189 0.461337 9.35176 0.593017C9.49009 0.658098 9.63328 0.742202 9.74933 0.855063C9.86493 0.967488 10.0001 1.1564 10.0001 1.41791C10.0001 1.67943 9.86493 1.86834 9.74933 1.98077C9.63328 2.09363 9.49009 2.17773 9.35176 2.24281C9.07189 2.37449 8.69828 2.4802 8.27562 2.56431C7.42207 2.73417 6.26427 2.83583 5.00009 2.83583C3.73591 2.83583 2.5781 2.73417 1.72455 2.56431C1.30189 2.4802 0.928281 2.37449 0.648408 2.24281C0.510086 2.17773 0.36689 2.09363 0.25084 1.98077C0.135237 1.86834 8.56519e-05 1.67943 8.56519e-05 1.41791C8.56519e-05 1.1564 0.135237 0.967488 0.25084 0.855063C0.36689 0.742202 0.510086 0.658098 0.648408 0.593017C0.928281 0.461337 1.30189 0.355631 1.72455 0.271519Z" fill="#333333"/>
</svg>
