<svg width="24" height="24" viewBox="0 0 24 24" fill="none" xmlns="http://www.w3.org/2000/svg">
<circle cx="12" cy="12" r="9" fill="white"/>
<path d="M13.5 9C13.5 9.82843 12.8284 10.5 12 10.5C11.1716 10.5 10.5 9.82843 10.5 9C10.5 8.17157 11.1716 7.5 12 7.5C12.8284 7.5 13.5 8.17157 13.5 9Z" fill="#90CAE3"/>
<path d="M12.933 12L10.5 12.3514C12.5 12.3514 11 15.9622 11 17C11.5 17.5 14.0011 16 13.5 16C13.0991 16 12.5 16.2162 12.5 16L12.933 12Z" fill="#90CAE3"/>
<path fill-rule="evenodd" clip-rule="evenodd" d="M13.2802 11.6402C13.3914 11.7475 13.4467 11.9002 13.4301 12.0538L13.0524 15.5433C13.0676 15.5409 13.0835 15.5385 13.1004 15.5359C13.2178 15.5183 13.3608 15.5 13.5 15.5C13.5427 15.5 13.6052 15.5035 13.6748 15.5233C13.7431 15.5427 13.8531 15.5878 13.9436 15.696C14.1612 15.9562 14.0307 16.2379 13.9979 16.2992C13.9511 16.3867 13.888 16.4532 13.848 16.4924C13.8016 16.5378 13.7494 16.5816 13.6969 16.6222C13.4911 16.7812 13.1794 16.9696 12.849 17.1347C12.5186 17.2999 12.1363 17.4586 11.7872 17.5412C11.6138 17.5823 11.4245 17.6105 11.2419 17.5997C11.064 17.5892 10.8299 17.537 10.6465 17.3536C10.5527 17.2598 10.5 17.1326 10.5 17C10.5 16.6793 10.6065 16.208 10.707 15.7628C10.7098 15.7504 10.7126 15.7381 10.7154 15.7257L10.7195 15.7078C10.829 15.2227 10.9455 14.7067 11.0036 14.2264C11.0644 13.7244 11.0489 13.3476 10.9571 13.116C10.9162 13.0129 10.8674 12.9574 10.8174 12.9239C10.7666 12.8899 10.6739 12.8514 10.5 12.8514C10.2378 12.8514 10.0201 12.6488 10.0013 12.3872C9.98251 12.1256 10.169 11.894 10.4285 11.8565L12.8616 11.5051C13.0145 11.4831 13.169 11.5329 13.2802 11.6402ZM12.1291 16.368C12.0408 16.2596 12 16.128 12 16C12 15.982 12.001 15.9641 12.0029 15.9462L12.3666 12.587L11.8498 12.6616C11.863 12.69 11.8753 12.7186 11.8867 12.7475C12.0762 13.2254 12.0606 13.8162 11.9964 14.3466C11.932 14.8781 11.8059 15.4365 11.6996 15.9071C11.6967 15.9201 11.6938 15.9331 11.6909 15.9459C11.6358 16.1898 11.59 16.3972 11.557 16.5681C11.7266 16.5279 11.9252 16.4568 12.1291 16.368Z" fill="#90CAE3"/>
</svg>
