<svg width="15" height="13" viewBox="0 0 15 13" fill="none" xmlns="http://www.w3.org/2000/svg">
<path fill-rule="evenodd" clip-rule="evenodd" d="M0 0.5C0 0.223858 0.223858 0 0.5 0H12.5C12.7761 0 13 0.223858 13 0.5V1.5C13 1.77614 12.7761 2 12.5 2C12.2239 2 12 1.77614 12 1.5V1H1V12H12V11.5C12 11.2239 12.2239 11 12.5 11C12.7761 11 13 11.2239 13 11.5V12.5C13 12.7761 12.7761 13 12.5 13H0.5C0.223858 13 0 12.7761 0 12.5V0.5Z" fill="white"/>
<path fill-rule="evenodd" clip-rule="evenodd" d="M11.6716 2.96444L14.8536 6.14642C15.0488 6.34168 15.0488 6.65826 14.8536 6.85353L11.6716 10.0355C11.4763 10.2308 11.1597 10.2308 10.9645 10.0355C10.7692 9.84025 10.7692 9.52366 10.9645 9.3284L13.2929 6.99997H6.5C6.22386 6.99997 6 6.77612 6 6.49997C6 6.22383 6.22386 5.99997 6.5 5.99997H13.2929L10.9645 3.67155C10.7692 3.47628 10.7692 3.1597 10.9645 2.96444C11.1597 2.76918 11.4763 2.76918 11.6716 2.96444Z" fill="white"/>
</svg>
