<svg width="9" height="14" viewBox="0 0 9 14" fill="none" xmlns="http://www.w3.org/2000/svg">
<path fill-rule="evenodd" clip-rule="evenodd" d="M4.87768 0.530631C5.00283 0.484689 5.14113 0.490622 5.26188 0.547112L7.96188 1.81027C8.21057 1.92662 8.31892 2.22175 8.20458 2.47137L4.15458 11.3135C4.11763 11.3942 4.05986 11.4636 3.98721 11.5145L1.28721 13.4093C1.13452 13.5164 0.934866 13.5297 0.769356 13.4436C0.603845 13.3576 0.5 13.1865 0.5 13V9.8421C0.5 9.77024 0.515491 9.69922 0.545416 9.63389L4.59542 0.791785C4.65093 0.670586 4.75254 0.576573 4.87768 0.530631ZM5.29468 1.66648L1.66113 9.59939L3.45532 10.4388L7.08887 2.50587L5.29468 1.66648ZM2.70577 11.1921L1.5 10.628V12.0383L2.70577 11.1921Z" fill="#333333"/>
</svg>
