<svg width="32" height="64" viewBox="0 0 32 64" fill="none" xmlns="http://www.w3.org/2000/svg">
<path fill-rule="evenodd" clip-rule="evenodd" d="M18.3904 11.6877C18.5629 11.9033 18.528 12.2179 18.3123 12.3905L13.8004 16L18.3123 19.6096C18.528 19.7821 18.5629 20.0967 18.3904 20.3124C18.2179 20.528 17.9033 20.563 17.6877 20.3905L12.6877 16.3905C12.569 16.2956 12.5 16.1519 12.5 16C12.5 15.8481 12.569 15.7045 12.6877 15.6096L17.6877 11.6096C17.9033 11.4371 18.2179 11.472 18.3904 11.6877Z" fill="#2B90D9"/>
<path opacity="0.5" fill-rule="evenodd" clip-rule="evenodd" d="M18.3904 43.6877C18.5629 43.9033 18.528 44.2179 18.3123 44.3905L13.8004 48L18.3123 51.6096C18.528 51.7821 18.5629 52.0967 18.3904 52.3124C18.2179 52.528 17.9033 52.563 17.6877 52.3905L12.6877 48.3905C12.569 48.2956 12.5 48.1519 12.5 48C12.5 47.8481 12.569 47.7045 12.6877 47.6096L17.6877 43.6096C17.9033 43.4371 18.2179 43.472 18.3904 43.6877Z" fill="black" fill-opacity="0.5"/>
</svg>
