<svg width="9" height="9" viewBox="0 0 9 9" fill="none" xmlns="http://www.w3.org/2000/svg">
<path fill-rule="evenodd" clip-rule="evenodd" d="M4.5 -2.18558e-08C4.77614 -9.78516e-09 5 0.223858 5 0.5L5 8.5C5 8.77614 4.77614 9 4.5 9C4.22386 9 4 8.77614 4 8.5L4 0.5C4 0.223858 4.22386 -3.39264e-08 4.5 -2.18558e-08Z" fill="white"/>
<path fill-rule="evenodd" clip-rule="evenodd" d="M0 4.5C0 4.22386 0.223858 4 0.5 4L8.5 4C8.77614 4 9 4.22386 9 4.5C9 4.77614 8.77614 5 8.5 5L0.5 5C0.223858 5 0 4.77614 0 4.5Z" fill="white"/>
</svg>
