<svg xmlns="http://www.w3.org/2000/svg" xmlns:xlink="http://www.w3.org/1999/xlink" viewBox="0 0 3935.31 2312.82"><defs><style>.cls-1{mask:url(#mask);}.cls-10,.cls-12,.cls-2,.cls-4,.cls-6,.cls-8{mix-blend-mode:multiply;}.cls-2{fill:url(#linear-gradient);}.cls-3{mask:url(#mask-2);}.cls-4{fill:url(#linear-gradient-2);}.cls-5{mask:url(#mask-3);}.cls-6{fill:url(#linear-gradient-3);}.cls-7{mask:url(#mask-4);}.cls-8{fill:url(#linear-gradient-4);}.cls-9{mask:url(#mask-5);}.cls-10{fill:url(#linear-gradient-5);}.cls-11{mask:url(#mask-6);}.cls-12{fill:url(#linear-gradient-6);}.cls-13{fill:none;}.cls-14{isolation:isolate;}.cls-15{clip-path:url(#clip-path);}.cls-16{mask:url(#mask-7);}.cls-17,.cls-18,.cls-21,.cls-25,.cls-27,.cls-29{mix-blend-mode:overlay;}.cls-17{opacity:0.93;fill:url(#linear-gradient-7);}.cls-18{opacity:0.44;}.cls-19{mask:url(#mask-8);}.cls-20{fill:url(#linear-gradient-8);}.cls-21{opacity:0.43;}.cls-22{mask:url(#mask-9);}.cls-23{fill:url(#linear-gradient-9);}.cls-24{mask:url(#mask-10);}.cls-25,.cls-27,.cls-29{opacity:0.26;}.cls-25{fill:url(#linear-gradient-10);}.cls-26{mask:url(#mask-11);}.cls-27{fill:url(#linear-gradient-11);}.cls-28{mask:url(#mask-12);}.cls-29{fill:url(#linear-gradient-12);}.cls-30{filter:url(#luminosity-noclip-12);}.cls-31{filter:url(#luminosity-noclip-11);}.cls-32{filter:url(#luminosity-noclip-10);}.cls-33{filter:url(#luminosity-noclip-9);}.cls-34{filter:url(#luminosity-noclip-8);}.cls-35{filter:url(#luminosity-noclip-7);}.cls-36{filter:url(#luminosity-noclip-6);}.cls-37{filter:url(#luminosity-noclip-5);}.cls-38{filter:url(#luminosity-noclip-4);}.cls-39{filter:url(#luminosity-noclip-3);}.cls-40{filter:url(#luminosity-noclip-2);}.cls-41{filter:url(#luminosity-noclip);}</style><filter id="luminosity-noclip" x="-254.54" y="-5858.32" width="2478.71" height="32766" filterUnits="userSpaceOnUse" color-interpolation-filters="sRGB"><feFlood flood-color="#fff" result="bg"/><feBlend in="SourceGraphic" in2="bg"/></filter><mask id="mask" x="-254.54" y="-5858.32" width="2478.71" height="32766" maskUnits="userSpaceOnUse"><g class="cls-41"/></mask><linearGradient id="linear-gradient" x1="-254.54" y1="526.45" x2="2224.17" y2="526.45" gradientUnits="userSpaceOnUse"><stop offset="0"/><stop offset="0.05"/><stop offset="0.51" stop-color="#888"/><stop offset="0.94"/></linearGradient><filter id="luminosity-noclip-2" x="-1012.65" y="-5858.32" width="1892.39" height="32766" filterUnits="userSpaceOnUse" color-interpolation-filters="sRGB"><feFlood flood-color="#fff" result="bg"/><feBlend in="SourceGraphic" in2="bg"/></filter><mask id="mask-2" x="-1012.65" y="-5858.32" width="1892.39" height="32766" maskUnits="userSpaceOnUse"><g class="cls-40"/></mask><linearGradient id="linear-gradient-2" x1="362.43" y1="-4338.35" x2="2979.21" y2="-4338.35" gradientTransform="matrix(0.75, 0.09, 0.12, -0.99, -734.82, -4087.2)" xlink:href="#linear-gradient"/><filter id="luminosity-noclip-3" x="-371.21" y="-5858.32" width="2920.66" height="32766" filterUnits="userSpaceOnUse" color-interpolation-filters="sRGB"><feFlood flood-color="#fff" result="bg"/><feBlend in="SourceGraphic" in2="bg"/></filter><mask id="mask-3" x="-371.21" y="-5858.32" width="2920.66" height="32766" maskUnits="userSpaceOnUse"><g class="cls-39"/></mask><linearGradient id="linear-gradient-3" x1="-294.23" y1="1090.38" x2="3058.01" y2="1090.38" gradientTransform="matrix(0.88, -0.1, 0.12, 0.99, -222.77, -505.42)" gradientUnits="userSpaceOnUse"><stop offset="0"/><stop offset="0.03"/><stop offset="0.51" stop-color="#888"/><stop offset="0.94"/></linearGradient><filter id="luminosity-noclip-4" x="321.37" y="-5858.32" width="2601.29" height="32766" filterUnits="userSpaceOnUse" color-interpolation-filters="sRGB"><feFlood flood-color="#fff" result="bg"/><feBlend in="SourceGraphic" in2="bg"/></filter><mask id="mask-4" x="321.37" y="-5858.32" width="2601.29" height="32766" maskUnits="userSpaceOnUse"><g class="cls-38"/></mask><linearGradient id="linear-gradient-4" x1="-11292.72" y1="3444.91" x2="-7909.43" y2="3444.91" gradientTransform="matrix(-0.7, 0.48, 0.56, 0.83, -6765.89, 1916.59)" gradientUnits="userSpaceOnUse"><stop offset="0"/><stop offset="0.05"/><stop offset="0.33" stop-color="#888"/><stop offset="0.78"/><stop offset="0.99"/></linearGradient><filter id="luminosity-noclip-5" x="-854.78" y="-5858.32" width="2616.69" height="32766" filterUnits="userSpaceOnUse" color-interpolation-filters="sRGB"><feFlood flood-color="#fff" result="bg"/><feBlend in="SourceGraphic" in2="bg"/></filter><mask id="mask-5" x="-854.78" y="-5858.32" width="2616.69" height="32766" maskUnits="userSpaceOnUse"><g class="cls-37"/></mask><linearGradient id="linear-gradient-5" x1="-854.78" y1="457.12" x2="1761.91" y2="457.12" xlink:href="#linear-gradient"/><filter id="luminosity-noclip-6" x="835.82" y="-5858.32" width="1977.77" height="32766" filterUnits="userSpaceOnUse" color-interpolation-filters="sRGB"><feFlood flood-color="#fff" result="bg"/><feBlend in="SourceGraphic" in2="bg"/></filter><mask id="mask-6" x="835.82" y="-5858.32" width="1977.77" height="32766" maskUnits="userSpaceOnUse"><g class="cls-36"/></mask><linearGradient id="linear-gradient-6" x1="2708.88" y1="-5296.97" x2="5325.6" y2="-5296.97" gradientTransform="matrix(0.75, -0.02, -0.03, -1, -1051.4, -4747.05)" gradientUnits="userSpaceOnUse"><stop offset="0"/><stop offset="0.05"/><stop offset="0.51" stop-color="#888"/><stop offset="0.84"/></linearGradient><clipPath id="clip-path" transform="translate(1012.65 1236.15)"><rect class="cls-13" width="1920" height="668.53"/></clipPath><filter id="luminosity-noclip-7" x="-254.54" y="48.09" width="2478.71" height="956.73" filterUnits="userSpaceOnUse" color-interpolation-filters="sRGB"><feFlood flood-color="#fff" result="bg"/><feBlend in="SourceGraphic" in2="bg"/></filter><mask id="mask-7" x="758.11" y="1284.23" width="2478.71" height="956.73" maskUnits="userSpaceOnUse"><g class="cls-35"><g transform="translate(1012.65 1236.15)"><g class="cls-1"><path class="cls-2" d="M-254.54,519.66c0,5.81,1-31.2,17.2-74.27,16.22-43.9,47.62-93.85,110-133,62-39.48,180.89-127.83,311.71-136.42,130-8.4,278,42.62,465.89,108.72C840,351.42,996,411.74,1125.83,460.15c129.68,49.5,236.44,76.84,334.52,71.93,196.1-7.12,357.4-147.91,586.63-364.44,116.72-97.8,168-124.58,176-118.81,8.26,6.62-26.86,45.79-75.63,99.49-48.82,53.54-111.3,121.59-159.12,182.16-48.26,59.41-81.85,111.35-83,105.71-.23,6.17-19,19.53-61.23,55.06-42.07,33.3-103.12,96-194,135-91.26,39-212.42,54.43-364.68,22.77-153-29.37-341.59-113-594.16-233.9C432.15,310.51,249.89,310,148.81,369.85,45.82,429-34.72,671.53-18.87,790.17c15.14,113.34-51.48,47.77-2.36,129.73,47.07,78.53,33.26,74.37,35.38,84.92C-150.1,782.26-82.41,699.37-254.54,519.66Z"/></g></g></g></mask><linearGradient id="linear-gradient-7" x1="-254.54" y1="526.45" x2="2224.17" y2="526.45" gradientUnits="userSpaceOnUse"><stop offset="0" stop-color="#fff"/><stop offset="0.05" stop-color="#38eaaf"/><stop offset="0.51" stop-color="#2e90fa"/><stop offset="0.94" stop-color="#38eaaf"/></linearGradient><filter id="luminosity-noclip-8" x="-371.21" y="-201.74" width="2920.66" height="1278.42" filterUnits="userSpaceOnUse" color-interpolation-filters="sRGB"><feFlood flood-color="#fff" result="bg"/><feBlend in="SourceGraphic" in2="bg"/></filter><mask id="mask-8" x="641.44" y="1034.4" width="2920.66" height="1278.42" maskUnits="userSpaceOnUse"><g class="cls-34"><g transform="translate(1012.65 1236.15)"><g class="cls-5"><path class="cls-6" d="M-235.63,712.1c7.38,4.1-38.29-23.68-77-74.28C-352,587.14-384.35,508-365.87,404.19-348.32,303-278,176.76-132.93,113.18,9.56,46.78,232.13,68.81,488.29,194.69c260,138.68,441,276.18,572.51,348.94,132.39,76.69,222.06,106.84,316.59,110.59,93.53,4.48,192.8-20.1,327.23-75.75,134.14-59.78,303.43-150.63,530.35-374.16C2345.15,92.9,2424.14-12.59,2474.68-84.51c50.74-73,73-112.41,74.7-116.66,2.85-10.21-77.62,118-183.53,250.15C2259.74,183.62,2130.13,312.82,2030,395.5c-100.15,83.65-172.07,132-168.92,129.41-4.83,3.94-34.21,24.14-99.69,61.73C1697.52,622.9,1600.45,671.7,1502.63,701c-100.23,28.66-195.72,46.46-314.86,13.82-123.08-30.6-274.85-130.4-596.15-349.06-161.72-99.48-307.55-154.69-413-161-106.44-7.92-172.53,33-197.44,88.88-53.33,118-222.18,247-87.3,385.69,127.7,131.29-217.72,280.8-125,382.12C-135.92,1165.5,132.67,702.39-235.63,712.1Z"/></g></g></g></mask><linearGradient id="linear-gradient-8" x1="-294.23" y1="1090.38" x2="3058.01" y2="1090.38" gradientTransform="matrix(0.88, -0.1, 0.12, 0.99, -222.77, -505.42)" gradientUnits="userSpaceOnUse"><stop offset="0" stop-color="#fff"/><stop offset="0.03" stop-color="#38eaaf"/><stop offset="0.51" stop-color="#2e98fa"/><stop offset="0.94" stop-color="#38eaaf"/></linearGradient><filter id="luminosity-noclip-9" x="321.37" y="-1236.15" width="2601.29" height="1947.66" filterUnits="userSpaceOnUse" color-interpolation-filters="sRGB"><feFlood flood-color="#fff" result="bg"/><feBlend in="SourceGraphic" in2="bg"/></filter><mask id="mask-9" x="1334.02" y="0" width="2601.29" height="1947.66" maskUnits="userSpaceOnUse"><g class="cls-33"><g transform="translate(1012.65 1236.15)"><g class="cls-7"><path class="cls-8" d="M2922.67-637.7c-.83,13.63,2.51-72.8-15.78-172.79-18-101.84-61.23-217.52-151.82-308.13-87.94-87.17-226.51-166.17-356.17-81-131.3,75-231.81,388-304.09,746.17-66.35,370.76-107.25,574.52-156.67,697.2-48.35,122.76-99.78,175.32-172.88,210.25-72,34.4-169.26,45.54-315.6,44.36-74.47-2.7-161-7.32-269.87-23.49-108.59-15.26-239.45-42.06-396.95-68-154.51-26.49-272.65-32.19-347.64-25.58-75.74,6.16-110.18,16.74-113.55,16.43-6.81.27,112.41-34.48,268.77-19.4,156.9,12.38,341.52,58,475.36,85.37,134.5,28.54,225.29,44.73,220.91,43.33,6.51,1.56,43.65,7.78,121.93,16.61,76,8.29,187.85,16.44,287,8.89,100.55-9.23,190.26-24,262.13-92.38,38.16-34.11,69.4-86.93,101-177.94,31.23-92.66,62.85-223.52,92.55-451.85,37.29-220.27,84.23-429.39,141.71-547,56.64-121.56,125.3-146.74,183.07-106.8C2598-761.83,2658.26-454,2680.22-178.38c23.31,283.34,27.78,535,35.16,674.73,6.56,145.63,8,198.29,10.81,215.16-10.14-171.24-11.43-387.69,14-625.36C2765.92-150.45,2818.37-408.27,2922.67-637.7Z"/></g></g></g></mask><linearGradient id="linear-gradient-9" x1="-11292.72" y1="3444.91" x2="-7909.43" y2="3444.91" gradientTransform="matrix(-0.7, 0.48, 0.56, 0.83, -6765.89, 1916.59)" gradientUnits="userSpaceOnUse"><stop offset="0" stop-color="#fff"/><stop offset="0.05" stop-color="#38eaaf"/><stop offset="0.33" stop-color="#1cb5fa"/><stop offset="0.78" stop-color="#38eaaf"/><stop offset="0.99" stop-color="#fff"/></linearGradient><filter id="luminosity-noclip-10" x="-854.78" y="-71.02" width="2616.69" height="1056.28" filterUnits="userSpaceOnUse" color-interpolation-filters="sRGB"><feFlood flood-color="#fff" result="bg"/><feBlend in="SourceGraphic" in2="bg"/></filter><mask id="mask-10" x="157.86" y="1165.13" width="2616.69" height="1056.28" maskUnits="userSpaceOnUse"><g class="cls-32"><g transform="translate(1012.65 1236.15)"><g class="cls-9"><path class="cls-10" d="M-854.78,400.55c0,5.82,1.08-31.19,18.15-74.26,17.13-43.9,50.27-93.86,116.08-133,65.42-39.48,163.48-68.16,301.59-76.75,137.28-8.4,314.6,3.29,519.29,49.05,203.82,56.49,365.06,127.07,502.09,175.48C739.32,390.55,852,417.89,955.57,413c207-7.12,377.29-147.91,619.28-364.44,123.21-97.8,177.4-124.58,185.78-118.8,8.73,6.61-28.35,45.79-79.83,99.49-51.55,53.54-117.5,121.58-168,182.16-50.94,59.41-86.41,111.35-87.63,105.71-.24,6.17-20.1,19.53-64.64,55.05-44.42,33.31-108.86,96-204.86,135-96.34,39-224.24,54.43-385,22.78C609.16,500.54,410.12,416.9,143.48,296-129.87,191.41-322.27,190.9-429,250.75c-108.72,59.11-131.75,178.58-112.77,296.91,18.56,119.17,79.16,237.23,128.28,313,50.3,78.17,89.11,114.05,91.35,124.6C-495.53,762.7-673.07,580.27-854.78,400.55Z"/></g></g></g></mask><linearGradient id="linear-gradient-10" x1="-854.78" y1="457.12" x2="1761.91" y2="457.12" gradientUnits="userSpaceOnUse"><stop offset="0" stop-color="#fff"/><stop offset="0.05" stop-color="#38eaaf"/><stop offset="0.51" stop-color="#1cb5fa"/><stop offset="0.94" stop-color="#38eaaf"/></linearGradient><filter id="luminosity-noclip-11" x="835.82" y="-39.14" width="1977.77" height="1012.87" filterUnits="userSpaceOnUse" color-interpolation-filters="sRGB"><feFlood flood-color="#fff" result="bg"/><feBlend in="SourceGraphic" in2="bg"/></filter><mask id="mask-11" x="1848.46" y="1197" width="1977.77" height="1012.87" maskUnits="userSpaceOnUse"><g class="cls-31"><g transform="translate(1012.65 1236.15)"><g class="cls-11"><path class="cls-12" d="M835.82,556.36c-.13-5.82,1.68,31.16,15.68,73.86,14.07,43.53,40.34,92.78,90.82,130.57,50.21,38.11,124.64,64.75,228.59,70.48,103.31,5.56,236.14-9.79,388.58-59.77,151.49-60.69,270.63-134.57,372.19-185.8,101.44-52.31,185.31-82,263.2-79.2,155.64,2.83,287.38,140,475,351.49,95.22,95.21,136.64,120.87,142.78,114.92,6.36-6.8-22.55-45.19-62.69-97.8S2658.44,756,2618.87,696.49C2579,638.16,2550.92,587,2550.16,592.63c-.35-6.16-15.64-19.1-50.06-53.69-34.27-32.37-84.38-93.7-157.54-130.71-73.42-37-169.88-49.78-289.71-14.81-120.5,32.71-267.66,120.43-464.55,246.79-202.38,110.22-346.84,114.71-428.62,57.09-83.27-56.84-103.85-175.79-92.86-294.47,10.66-119.51,52.91-238.78,87.71-315.53,35.62-79.19,63.77-115.85,65.16-126.44C1095.62,186.91,967.32,373,835.82,556.36Z"/></g></g></g></mask><linearGradient id="linear-gradient-11" x1="2708.88" y1="-5296.97" x2="5325.6" y2="-5296.97" gradientTransform="matrix(0.75, -0.02, -0.03, -1, -1051.4, -4747.05)" gradientUnits="userSpaceOnUse"><stop offset="0" stop-color="#fff"/><stop offset="0.05" stop-color="#38eaaf"/><stop offset="0.51" stop-color="#1cb5fa"/><stop offset="0.84" stop-color="#38eaaf"/></linearGradient><filter id="luminosity-noclip-12" x="-1012.65" y="-222.95" width="1892.39" height="1242.78" filterUnits="userSpaceOnUse" color-interpolation-filters="sRGB"><feFlood flood-color="#fff" result="bg"/><feBlend in="SourceGraphic" in2="bg"/></filter><mask id="mask-12" x="0" y="1013.2" width="1892.39" height="1242.78" maskUnits="userSpaceOnUse"><g class="cls-30"><g transform="translate(1012.65 1236.15)"><g class="cls-3"><path class="cls-4" d="M-1012.3,307.33c.75-5.77-3.08,31.05,4.27,75.39,7.29,45.16,25.77,97.83,69.94,142.84,43.84,45.3,113.35,82.94,215.22,104.39,101.27,21.19,234.89,26.19,393.16,0,159-37,287.92-91.91,396.09-127.11,108.2-36.3,195.61-52.87,272.17-38.3C492,490.94,601.32,646.58,754.7,884.07c79.65,108.57,116.69,140.22,123.66,135.28,7.33-5.75-15.42-48.1-47.1-106.19s-72.42-131.64-102.5-196.47C698.2,653,678.24,598.12,676.63,603.6c.58-6.14-12.55-21.26-41.32-60.68-29-37.2-69.18-105.42-135.86-153.12-66.94-47.75-160.35-75-284.1-58.64C91.28,345.18-67.5,409.53-281.3,504.51c-216.77,78.2-360.24,60.69-432.32-8.68-73.66-68.83-75.94-189.52-47-305.16C-732,74.17-672.1-37.3-626-107.87c47.24-72.86,80.64-104.82,83.62-115.08C-699.4-18.36-854.47,146-1012.3,307.33Z"/></g></g></g></mask><linearGradient id="linear-gradient-12" x1="362.43" y1="-4338.35" x2="2979.21" y2="-4338.35" gradientTransform="matrix(0.75, 0.09, 0.12, -0.99, -734.82, -4087.2)" xlink:href="#linear-gradient-10"/></defs><g class="cls-14"><g id="레이어_2" data-name="레이어 2"><g id="레이어_1-2" data-name="레이어 1"><g class="cls-15"><g class="cls-16"><path class="cls-17" d="M-254.54,519.66c0,5.81,1-31.2,17.2-74.27,16.22-43.9,47.62-93.85,110-133,62-39.48,180.89-127.83,311.71-136.42,130-8.4,278,42.62,465.89,108.72C840,351.42,996,411.74,1125.83,460.15c129.68,49.5,236.44,76.84,334.52,71.93,196.1-7.12,357.4-147.91,586.63-364.44,116.72-97.8,168-124.58,176-118.81,8.26,6.62-26.86,45.79-75.63,99.49-48.82,53.54-111.3,121.59-159.12,182.16-48.26,59.41-81.85,111.35-83,105.71-.23,6.17-19,19.53-61.23,55.06-42.07,33.3-103.12,96-194,135-91.26,39-212.42,54.43-364.68,22.77-153-29.37-341.59-113-594.16-233.9C432.15,310.51,249.89,310,148.81,369.85,45.82,429-34.72,671.53-18.87,790.17c15.14,113.34-51.48,47.77-2.36,129.73,47.07,78.53,33.26,74.37,35.38,84.92C-150.1,782.26-82.41,699.37-254.54,519.66Z" transform="translate(1012.65 1236.15)"/></g><g class="cls-18"><g class="cls-19"><path class="cls-20" d="M-235.63,712.1c7.38,4.1-38.29-23.68-77-74.28C-352,587.14-384.35,508-365.87,404.19-348.32,303-278,176.76-132.93,113.18,9.56,46.78,232.13,68.81,488.29,194.69c260,138.68,441,276.18,572.51,348.94,132.39,76.69,222.06,106.84,316.59,110.59,93.53,4.48,192.8-20.1,327.23-75.75,134.14-59.78,303.43-150.63,530.35-374.16C2345.15,92.9,2424.14-12.59,2474.68-84.51c50.74-73,73-112.41,74.7-116.66,2.85-10.21-77.62,118-183.53,250.15C2259.74,183.62,2130.13,312.82,2030,395.5c-100.15,83.65-172.07,132-168.92,129.41-4.83,3.94-34.21,24.14-99.69,61.73C1697.52,622.9,1600.45,671.7,1502.63,701c-100.23,28.66-195.72,46.46-314.86,13.82-123.08-30.6-274.85-130.4-596.15-349.06-161.72-99.48-307.55-154.69-413-161-106.44-7.92-172.53,33-197.44,88.88-53.33,118-222.18,247-87.3,385.69,127.7,131.29-217.72,280.8-125,382.12C-135.92,1165.5,132.67,702.39-235.63,712.1Z" transform="translate(1012.65 1236.15)"/></g></g><g class="cls-21"><g class="cls-22"><path class="cls-23" d="M2922.67-637.7c-.83,13.63,2.51-72.8-15.78-172.79-18-101.84-61.23-217.52-151.82-308.13-87.94-87.17-226.51-166.17-356.17-81-131.3,75-231.81,388-304.09,746.17-66.35,370.76-107.25,574.52-156.67,697.2-48.35,122.76-99.78,175.32-172.88,210.25-72,34.4-169.26,45.54-315.6,44.36-74.47-2.7-161-7.32-269.87-23.49-108.59-15.26-239.45-42.06-396.95-68-154.51-26.49-272.65-32.19-347.64-25.58-75.74,6.16-110.18,16.74-113.55,16.43-6.81.27,112.41-34.48,268.77-19.4,156.9,12.38,341.52,58,475.36,85.37,134.5,28.54,225.29,44.73,220.91,43.33,6.51,1.56,43.65,7.78,121.93,16.61,76,8.29,187.85,16.44,287,8.89,100.55-9.23,190.26-24,262.13-92.38,38.16-34.11,69.4-86.93,101-177.94,31.23-92.66,62.85-223.52,92.55-451.85,37.29-220.27,84.23-429.39,141.71-547,56.64-121.56,125.3-146.74,183.07-106.8C2598-761.83,2658.26-454,2680.22-178.38c23.31,283.34,27.78,535,35.16,674.73,6.56,145.63,8,198.29,10.81,215.16-10.14-171.24-11.43-387.69,14-625.36C2765.92-150.45,2818.37-408.27,2922.67-637.7Z" transform="translate(1012.65 1236.15)"/></g></g><g class="cls-24"><path class="cls-25" d="M-854.78,400.55c0,5.82,1.08-31.19,18.15-74.26,17.13-43.9,50.27-93.86,116.08-133,65.42-39.48,163.48-68.16,301.59-76.75,137.28-8.4,314.6,3.29,519.29,49.05,203.82,56.49,365.06,127.07,502.09,175.48C739.32,390.55,852,417.89,955.57,413c207-7.12,377.29-147.91,619.28-364.44,123.21-97.8,177.4-124.58,185.78-118.8,8.73,6.61-28.35,45.79-79.83,99.49-51.55,53.54-117.5,121.58-168,182.16-50.94,59.41-86.41,111.35-87.63,105.71-.24,6.17-20.1,19.53-64.64,55.05-44.42,33.31-108.86,96-204.86,135-96.34,39-224.24,54.43-385,22.78C609.16,500.54,410.12,416.9,143.48,296-129.87,191.41-322.27,190.9-429,250.75c-108.72,59.11-131.75,178.58-112.77,296.91,18.56,119.17,79.16,237.23,128.28,313,50.3,78.17,89.11,114.05,91.35,124.6C-495.53,762.7-673.07,580.27-854.78,400.55Z" transform="translate(1012.65 1236.15)"/></g><g class="cls-26"><path class="cls-27" d="M835.82,556.36c-.13-5.82,1.68,31.16,15.68,73.86,14.07,43.53,40.34,92.78,90.82,130.57,50.21,38.11,124.64,64.75,228.59,70.48,103.31,5.56,236.14-9.79,388.58-59.77,151.49-60.69,270.63-134.57,372.19-185.8,101.44-52.31,185.31-82,263.2-79.2,155.64,2.83,287.38,140,475,351.49,95.22,95.21,136.64,120.87,142.78,114.92,6.36-6.8-22.55-45.19-62.69-97.8S2658.44,756,2618.87,696.49C2579,638.16,2550.92,587,2550.16,592.63c-.35-6.16-15.64-19.1-50.06-53.69-34.27-32.37-84.38-93.7-157.54-130.71-73.42-37-169.88-49.78-289.71-14.81-120.5,32.71-267.66,120.43-464.55,246.79-202.38,110.22-346.84,114.71-428.62,57.09-83.27-56.84-103.85-175.79-92.86-294.47,10.66-119.51,52.91-238.78,87.71-315.53,35.62-79.19,63.77-115.85,65.16-126.44C1095.62,186.91,967.32,373,835.82,556.36Z" transform="translate(1012.65 1236.15)"/></g><g class="cls-28"><path class="cls-29" d="M-1012.3,307.33c.75-5.77-3.08,31.05,4.27,75.39,7.29,45.16,25.77,97.83,69.94,142.84,43.84,45.3,113.35,82.94,215.22,104.39,101.27,21.19,234.89,26.19,393.16,0,159-37,287.92-91.91,396.09-127.11,108.2-36.3,195.61-52.87,272.17-38.3C492,490.94,601.32,646.58,754.7,884.07c79.65,108.57,116.69,140.22,123.66,135.28,7.33-5.75-15.42-48.1-47.1-106.19s-72.42-131.64-102.5-196.47C698.2,653,678.24,598.12,676.63,603.6c.58-6.14-12.55-21.26-41.32-60.68-29-37.2-69.18-105.42-135.86-153.12-66.94-47.75-160.35-75-284.1-58.64C91.28,345.18-67.5,409.53-281.3,504.51c-216.77,78.2-360.24,60.69-432.32-8.68-73.66-68.83-75.94-189.52-47-305.16C-732,74.17-672.1-37.3-626-107.87c47.24-72.86,80.64-104.82,83.62-115.08C-699.4-18.36-854.47,146-1012.3,307.33Z" transform="translate(1012.65 1236.15)"/></g></g></g></g></g></svg>